<svg xmlns="http://www.w3.org/2000/svg" aria-hidden="true" style="position:absolute;width:0;height:0;overflow:hidden">
  <defs>
    <symbol id="logo" viewBox="0 0 100 32">
      <path
        d="M47.072 10.486v.154c.005.06.005.122 0 .187 0 .06-.006.116-.017.171-.006.049-.019.083-.041.105a.37.37 0 0 1-.151.097l-.003.001a1.48 1.48 0 0 1-.17.024.952.952 0 0 0-.171.017.391.391 0 0 0-.164.057l.002-.001c.011.054.035.09.073.106l.13.032a.219.219 0 0 1 .122.05c.038.022.057.068.057.138a.614.614 0 0 1-.058.284.918.918 0 0 1-.123.196l.001-.002c-.045.05-.092.105-.139.162l-.007.008a.627.627 0 0 0-.113.223l-.001.005a.474.474 0 0 1-.122.211.663.663 0 0 1-.163.106 3.588 3.588 0 0 0-.195.083l.024-.01a.458.458 0 0 0-.169.145l-.001.001c-.06.065-.108.097-.146.097a.29.29 0 0 1-.059-.009h.002a.33.33 0 0 0-.072-.008h-.009a.128.128 0 0 0-.081.032.075.075 0 0 0-.032.062v.003c0 .011.005.016.016.016s.013.003.008.008c-.065.06-.181.13-.349.211-.15.069-.341.143-.536.207l-.04.011a7.966 7.966 0 0 1-.681.171 3.667 3.667 0 0 1-.666.065c-.367 0-.733-.011-1.094-.032-.327-.016-.71-.025-1.096-.025H39.76c-.016 0-.04.017-.073.049a.125.125 0 0 1-.097.049 1.51 1.51 0 0 1-.52-.108l.009.003a1.054 1.054 0 0 1-.243-.138.27.27 0 0 1-.09-.269v.002a.76.76 0 0 0 .015-.063l.002-.01a.74.74 0 0 1 .202-.34c.087-.081.179-.149.276-.203l.308-.179a.887.887 0 0 0 .284-.251c.086-.109.157-.254.211-.438s.081-.429.081-.738c0-.282-.019-.56-.057-.835a7.257 7.257 0 0 1-.049-.836c.006-.519.016-1.033.032-1.541.02-.435.035-.973.041-1.514v-.027l.008-1.274c0-.135-.006-.292-.017-.47a2.001 2.001 0 0 0-.084-.525l.004.014a.98.98 0 0 0-.22-.423l.001.001a.585.585 0 0 0-.422-.203 1.13 1.13 0 0 1-.324-.076l.008.003a1.655 1.655 0 0 1-.347-.174l.006.004a1.536 1.536 0 0 1-.268-.252.46.46 0 0 1-.113-.3c0-.092.027-.168.081-.227a.612.612 0 0 1 .191-.152l.003-.002a.771.771 0 0 1 .238-.089l.005-.001c.092-.022.176-.032.252-.032.173 0 .344.019.511.056.168.032.34.049.518.049h.004c.233 0 .463-.012.69-.034l-.029.002c.227-.022.452-.046.673-.074.222-.032.444-.06.666-.081a7.056 7.056 0 0 1 1.249-.009l.568.032c.032.044.089.079.17.106s.168.051.259.073c.097.022.192.041.284.058.203.023.387.066.562.127l-.018-.006a.632.632 0 0 1 .243.122.632.632 0 0 1 .176.192l.002.003c.054.081.102.186.146.316.006.016.03.04.073.073.049.032.102.065.163.097s.116.065.17.097c.054.032.092.06.113.081.07.07.141.179.211.324.076.141.143.292.203.454s.108.321.146.478c.038.157.057.284.057.381 0 .2-.03.4-.09.6-.079.303-.138.498-.2.691l.03-.107a1.2 1.2 0 0 1-.17.324c-.07.102-.141.208-.211.316-.07.102-.132.208-.186.316a.809.809 0 0 0-.073.338v.003c0 .168.035.335.106.502a2.976 2.976 0 0 0 .373.649c.054.06.105.119.154.179a1.21 1.21 0 0 1 .26.381c.07.173.116.354.138.544.021.183.032.367.032.551zM45.538 5.53a1.032 1.032 0 0 0-.026-.218l.001.007a4.2 4.2 0 0 0-.063-.271l.006.028a9.347 9.347 0 0 0-.092-.368l.027.116a2.662 2.662 0 0 1-.046-.209l-.003-.018a.546.546 0 0 0-.186-.324l-.001-.001a1.035 1.035 0 0 0-.141-.102l-.005-.003a1.743 1.743 0 0 1-.164-.131l.001.001a2.315 2.315 0 0 0-.378-.278l-.011-.006a1.682 1.682 0 0 0-.377-.159l-.012-.003a2.129 2.129 0 0 0-.423-.073h-.007a4.466 4.466 0 0 0-.48-.024h-.024.001c-.119 0-.243.003-.373.008-.123.004-.24.022-.352.051l.011-.002c-.022.011-.035.024-.041.041a.111.111 0 0 1-.04.048.251.251 0 0 1-.095.048h-.002c-.058.01-.125.017-.194.017l-.035-.001h.002c-.157 0-.287.022-.389.065a.58.58 0 0 0-.234.185l-.001.002a.722.722 0 0 0-.113.28l-.001.004c-.022.11-.037.238-.041.369v.004l-.016.551c0 .189-.008.379-.024.568a3.662 3.662 0 0 1-.09.543c-.038.179-.1.352-.186.519.303.076.611.135.925.179s.622.065.925.065c.211 0 .422-.008.632-.024a5.85 5.85 0 0 0 .633-.081c.076-.016.176-.045.3-.089.13-.043.254-.097.373-.162a1.6 1.6 0 0 0 .324-.22c.097-.081.152-.164.162-.251a.492.492 0 0 1 .067-.181l-.001.002c.044-.063.081-.113.12-.162l-.006.008c.044-.054.081-.109.114-.163a.346.346 0 0 0 .049-.18v-.007zm.267 5.418c0-.141-.019-.281-.057-.422a5.7 5.7 0 0 1-.081-.422 3.698 3.698 0 0 0-.052-.332l.004.024a.506.506 0 0 0-.067-.198l.001.002a.602.602 0 0 0-.121-.17 4.093 4.093 0 0 0-.229-.206l-.006-.005c-.027-.118-.056-.189-.089-.211a.138.138 0 0 0-.089-.032h-.001a.552.552 0 0 0-.092.008h.003-.081l-.113-.227a2.044 2.044 0 0 0-.264-.157l-.012-.005a.816.816 0 0 0-.298-.073h-.002a1.748 1.748 0 0 1-.337-.069l.012.003a1.081 1.081 0 0 0-.324-.049h-.005a.13.13 0 0 0-.108.057c-.028.038-.049.057-.065.057a.493.493 0 0 1-.117-.017l.003.001a.972.972 0 0 0-.131-.039l-.007-.001a1.304 1.304 0 0 0-.145-.039l-.008-.001a.408.408 0 0 0-.138-.024c-.243 0-.481.027-.714.081a16.27 16.27 0 0 0-.69.163 7.211 7.211 0 0 0-.129.373c-.038.135-.074.273-.106.413s-.06.282-.081.422c-.02.114-.031.246-.032.38v.015c0 .047.006.092.017.135l-.001-.004a.483.483 0 0 0 .041.092l-.001-.002a.504.504 0 0 1 .039.077l.001.004a.247.247 0 0 1 .017.092v.005c0 .216-.024.43-.073.641a3.005 3.005 0 0 0-.065.632c0 .141.019.276.057.406s.102.249.195.357a.75.75 0 0 1 .308.065c.097.038.2.057.308.057a.46.46 0 0 0 .22-.057.445.445 0 0 1 .176-.057h.002c.044 0 .076.019.098.058.027.037.07.056.129.056h.033a.166.166 0 0 1 .088-.064h.001a.415.415 0 0 1 .144-.041h.002a1.03 1.03 0 0 1 .186-.016 3.076 3.076 0 0 1 .456.001l-.01-.001c.065.005.138.008.219.008.26-.055.477-.116.689-.19l-.04.012c.208-.073.382-.149.549-.238l-.022.01c.184-.092.328-.2.43-.324.054-.054.114-.122.179-.203a2.104 2.104 0 0 0 .333-.527.704.704 0 0 0 .065-.284zm12.226-8.071a.228.228 0 0 1-.074.17.713.713 0 0 1-.173.112l-.005.002a2.132 2.132 0 0 1-.187.084l-.016.005a3.216 3.216 0 0 0-.203.082l.025-.01a.573.573 0 0 0-.114.074l.001-.001-.09.09a.449.449 0 0 1-.095.072l-.002.001a.479.479 0 0 1-.126.056l-.003.001c-.07.016-.132.024-.186.024s-.106.005-.154.016a.238.238 0 0 0-.13.057.5.5 0 0 0-.112.167l-.001.003a.916.916 0 0 0-.073.252 1.47 1.47 0 0 1-.06.278l.003-.01a.573.573 0 0 1-.122.219l.001-.001c-.048.06-.127.09-.235.09 0 .06.019.122.057.186l.13.179c.049.059.092.122.13.186a.33.33 0 0 1 .056.179.453.453 0 0 1-.041.188l.001-.003a.444.444 0 0 0-.04.185v.002l-.008.495a.755.755 0 0 0 .056.324.743.743 0 0 1 .074.324.524.524 0 0 1-.042.198l.001-.003a.452.452 0 0 0-.04.19v.005c0 .227.022.454.065.682.049.221.073.451.073.689 0 .157-.013.327-.04.511a.909.909 0 0 1-.196.456l.001-.002a.508.508 0 0 0 .049.195c.055.098.107.213.149.333l.005.016a.67.67 0 0 1 .041.26c0 .097-.011.227-.032.389a2.234 2.234 0 0 1-.103.479l.005-.016a1.316 1.316 0 0 1-.205.392l.002-.003a.377.377 0 0 1-.31.163H55.7c-.006-.006-.014-.008-.025-.008l-.008.049v.024c0 .076.021.143.065.203a.313.313 0 0 1 .073.2v.003c0 .038-.024.086-.073.146-.044.06-.097.122-.162.186-.064.064-.13.125-.198.183l-.005.004a6.284 6.284 0 0 0-.163.154l.001-.001a.707.707 0 0 0-.112.143l-.002.003a.815.815 0 0 1-.075.124l.002-.003a.326.326 0 0 1-.096.089l-.001.001a.605.605 0 0 1-.176.056h-.004c-.14.027-.264.068-.372.122a4.995 4.995 0 0 0-.344.186l.028-.015c-.102.054-.213.1-.333.138a1.237 1.237 0 0 1-.429.065c-.092 0-.181-.011-.268-.032a4.886 4.886 0 0 1-.293-.082l.033.009a2.007 2.007 0 0 0-.253-.078l-.015-.003a1.056 1.056 0 0 0-.259-.032h-.001c-.07 0-.141.005-.211.015a2.48 2.48 0 0 1-.201.008h-.001a.889.889 0 0 1-.13-.008.223.223 0 0 1-.097-.065.365.365 0 0 0-.127-.089l-.002-.001a1.345 1.345 0 0 0-.169-.07l-.01-.003a1.249 1.249 0 0 0-.185-.063l-.01-.002a1.778 1.778 0 0 0-.146-.045l-.016-.004a.73.73 0 0 1-.285-.162h.001a2.034 2.034 0 0 1-.239-.27l-.004-.006a3.882 3.882 0 0 1-.184-.311l-.011-.022a2.87 2.87 0 0 1-.266-.852l-.002-.016a9.442 9.442 0 0 1-.062-.534l-.003-.042c-.022-.27-.042-.468-.066-.665l.009.089a3.475 3.475 0 0 0-.103-.6l.005.024a3.527 3.527 0 0 0-.081-.253l.008.026a.926.926 0 0 1-.015-.419l-.001.006.032-.179c.044-.227.076-.457.098-.689.026-.209.04-.451.04-.696v-.002a8.73 8.73 0 0 0-.049-.917 10.31 10.31 0 0 1-.041-.916V5.806c0-.169.027-.331.076-.484l-.003.011a.907.907 0 0 0 .058-.317v-.001a.336.336 0 0 0-.017-.106l.001.002a2.781 2.781 0 0 1-.028-.088l-.004-.018a1.163 1.163 0 0 1-.113-.375l-.001-.006a9.385 9.385 0 0 1-.028-.338l-.004-.068c-.022-.232-.07-.397-.147-.495a.597.597 0 0 0-.271-.21l-.004-.001a1.946 1.946 0 0 0-.352-.103l-.013-.002a1.202 1.202 0 0 1-.417-.213l.002.002a.483.483 0 0 1-.113-.097l-.001-.001a.255.255 0 0 1-.041-.138c0-.086.046-.165.138-.236.097-.07.211-.127.34-.17s.26-.076.39-.097c.129-.027.23-.04.3-.04.086 0 .167.011.243.032a.952.952 0 0 0 .252.033c.173 0 .34-.019.502-.057a1.96 1.96 0 0 1 .503-.065 2.727 2.727 0 0 1 .762.162c.146.049.273.111.381.187.113.07.17.151.17.243a.581.581 0 0 1-.114.34 1.71 1.71 0 0 1-.268.301 7.389 7.389 0 0 1-.342.288l-.015.012a3.327 3.327 0 0 0-.349.333 1.808 1.808 0 0 0-.271.395l-.005.01a1.11 1.11 0 0 0-.106.478v.018-.001c0 .108.003.219.008.333a3.25 3.25 0 0 1-.052.986l.004-.021a3.652 3.652 0 0 0-.057.649c0 .179.024.34.073.486.054.141.081.252.081.333a.903.903 0 0 1-.032.243.963.963 0 0 0-.025.227v.106a.586.586 0 0 1 .008.106v.019a.474.474 0 0 1-.042.195l.001-.003a.901.901 0 0 1-.075.149l.002-.004c-.031.05-.058.09-.086.129l.005-.007a.217.217 0 0 0-.04.126v.004a.655.655 0 0 1 .081-.056.165.165 0 0 1 .089-.025h.001c.038 0 .067.014.09.041.021.028.038.06.048.095v.002c.017.032.028.07.033.113.005.038.008.07.008.097 0 .141.019.279.056.414.044.135.065.273.065.413 0 .125-.011.252-.032.381a2.272 2.272 0 0 0-.007.742l-.002-.013c.021.103.094.187.219.252.021.011.045.043.073.097s.054.113.081.179a7.9 7.9 0 0 1 .098.186c.032.06.064.102.097.13.065.06.134.108.211.146l.227.113c.081.033.157.07.227.114a.649.649 0 0 1 .203.162c.049.06.111.114.186.163.076.043.149.092.22.146a.955.955 0 0 1 .195.162c.05.055.081.129.081.21v.01c0-.07.011-.127.033-.17a.255.255 0 0 1 .008.064v.009c0 .043-.011.076-.032.097a.398.398 0 0 0 .055-.079l.001-.002.065-.113c.022-.038.044-.07.065-.098s.046-.04.073-.04c.038 0 .073.013.106.04s.049.063.049.106v.001a.366.366 0 0 1-.034.155l.001-.002a.488.488 0 0 0-.041.151v.002a.43.43 0 0 0 .165-.033l-.003.001a.877.877 0 0 0 .163-.097.416.416 0 0 0 .112-.128l.001-.002a.332.332 0 0 0 .049-.17c0-.07-.022-.113-.065-.13a.293.293 0 0 0-.133-.032h-.014.001c-.043 0-.086.003-.129.008a.79.79 0 0 1-.122.008h-.024a.516.516 0 0 1 .122-.203.656.656 0 0 1 .186-.13 1.16 1.16 0 0 1 .219-.09c.076-.026.149-.054.22-.081a.771.771 0 0 0 .275-.17c.07-.076.136-.154.195-.236l.179-.243c.06-.086.132-.165.219-.235a.817.817 0 0 0 .008-.106v-.097c0-.114-.005-.224-.016-.333a7.1 7.1 0 0 1-.008-.34c0-.125.017-.249.049-.373.038-.125.058-.249.058-.373a1.14 1.14 0 0 0-.041-.308 1.208 1.208 0 0 1-.041-.316v-.001c0-.097.014-.192.041-.284.025-.087.04-.188.04-.292a2.49 2.49 0 0 0-.04-.454 2.471 2.471 0 0 1-.041-.454 3.7 3.7 0 0 1 .049-.6c.038-.195.058-.392.058-.592a3.93 3.93 0 0 0-.074-.762 4.326 4.326 0 0 1-.065-.755V4.82c.005-.065.013-.127.024-.186a.548.548 0 0 1 .066-.165l-.001.003a.13.13 0 0 1 .118-.073h.004a.404.404 0 0 1-.186-.097 3.433 3.433 0 0 1-.209-.209l-.002-.002a5.353 5.353 0 0 1-.168-.219l-.011-.016a.408.408 0 0 1-.073-.187l-.081.017h-.073a.61.61 0 0 1-.223-.042l.004.001-.195-.081a2.132 2.132 0 0 0-.187-.084l-.016-.005a.607.607 0 0 0-.221-.04h-.046a1.863 1.863 0 0 0-.11-.402l.004.013a1.18 1.18 0 0 1-.065-.389v-.008c0-.109.027-.195.081-.26a.557.557 0 0 1 .215-.145l.004-.001a.916.916 0 0 1 .275-.073c.082-.01.178-.016.275-.017h.001c.151 0 .3.008.446.024s.294.024.446.024a.692.692 0 0 0 .316-.073.62.62 0 0 1 .308-.081c.06 0 .122.014.186.041.065.022.13.049.195.081l.211.097c.07.027.138.045.203.056.102.017.211.024.324.024.119 0 .235.006.349.017s.221.032.324.065a.698.698 0 0 1 .395.282l.002.002a.257.257 0 0 1 .058.162zm10.545 9.686c0 .049-.003.113-.008.195s-.033.135-.081.162a.198.198 0 0 0-.105.137v.001c-.01.058-.016.125-.016.193v.001c0 .065-.003.124-.008.179-.005.049-.027.073-.065.073h-.006a.116.116 0 0 1-.059-.016h.001a.09.09 0 0 0-.061-.024h-.004c-.027 0-.054.013-.081.04s-.04.054-.04.081c0 .027.008.049.024.065.022.011.033.03.033.057 0 .022-.041.049-.122.081-.058.021-.15.049-.244.073l-.032.007a1.942 1.942 0 0 1-.287.071l-.013.002a1.125 1.125 0 0 1-.195.033c-.195 0-.39-.035-.584-.106s-.384-.134-.568-.195a.903.903 0 0 1-.495-.373 1.957 1.957 0 0 1-.225-.571l-.002-.013a6.28 6.28 0 0 1-.111-.632l-.003-.033a2.444 2.444 0 0 0-.135-.625l.005.017a.641.641 0 0 1-.04-.201V11.229c0-.042.006-.083.017-.121l-.001.003a.465.465 0 0 1 .05-.091l-.001.001.049-.064a.106.106 0 0 0 .024-.065.375.375 0 0 0-.058-.196l.001.002a.512.512 0 0 1-.058-.236l.001-.025v.001-.17c.005-.053.008-.114.008-.175v-.003a1.8 1.8 0 0 0-.057-.495 1.338 1.338 0 0 0-.149-.363l.003.006a2.391 2.391 0 0 0-.222-.329l.003.004a7.99 7.99 0 0 1-.254-.355l-.022-.034a.704.704 0 0 1-.15.016h-.158c-.108 0-.216-.005-.324-.016a2.817 2.817 0 0 0-.316-.017c-.114 0-.23.011-.349.033-.114.022-.23.032-.349.032a.803.803 0 0 1-.227-.032.665.665 0 0 0-.508.018l.004-.002a.793.793 0 0 0-.252.147.741.741 0 0 0-.184.215l-.002.004a.552.552 0 0 0-.065.262v.274c0 .487-.044.964-.129 1.427l.007-.048-.032.211a1.2 1.2 0 0 0-.017.206v.005c0 .221.044.399.13.535.09.132.2.243.329.33l.004.003c.129.081.273.148.429.202s.301.111.43.17c.13.054.238.122.324.203a.42.42 0 0 1 .138.333.374.374 0 0 1-.034.156l.001-.002c-.067.151-.157.28-.267.389a.727.727 0 0 1-.198.129l-.005.002c-.07.032-.149.057-.236.073s-.189.038-.308.065a1.56 1.56 0 0 1-.288.041h-.004a2.6 2.6 0 0 1-.29.016h-.002c-.152 0-.3-.019-.446-.057a1.993 1.993 0 0 0-.444-.049h-.002c-.114 0-.23.011-.349.032a8.092 8.092 0 0 0-.341.058 3.324 3.324 0 0 1-.32.062l-.021.002a1.779 1.779 0 0 1-.34.032c-.076 0-.16-.008-.252-.024a.761.761 0 0 1-.247-.092l.004.002a.6.6 0 0 1-.194-.153l-.001-.001a.375.375 0 0 1-.073-.224v-.012.001c0-.076.019-.143.058-.203a.536.536 0 0 1 .144-.152l.002-.001a.983.983 0 0 1 .203-.106.724.724 0 0 1 .2-.048h.003c.06-.005.108-.008.146-.008h.009a.294.294 0 0 0 .099-.017l-.002.001a.4.4 0 0 0 .099-.05l-.001.001a.768.768 0 0 0 .113-.097.648.648 0 0 1 .074-.065.185.185 0 0 1 .092-.024h.006c.027 0 .054.003.081.008a.404.404 0 0 0 .081.008.247.247 0 0 0 .131-.041l-.001.001a.579.579 0 0 0 .242-.248l.002-.003c.049-.102.081-.214.097-.333.016-.124.024-.252.024-.381.006-.13.022-.25.049-.357.028-.119.041-.23.041-.333 0-.189-.024-.376-.073-.559a2.397 2.397 0 0 1-.065-.56c0-.227.017-.454.049-.682s.049-.454.049-.681c0-.06-.003-.116-.008-.17V8.21c0-.389.024-.773.073-1.152.046-.344.073-.742.073-1.146v-.011c0-.221-.012-.44-.035-.655l.002.027a6.917 6.917 0 0 1-.032-.316 5.192 5.192 0 0 0-.054-.428l.004.031a3.459 3.459 0 0 0-.096-.431l.006.026a1.179 1.179 0 0 0-.148-.362l.003.005a.769.769 0 0 0-.225-.258l-.002-.002a.483.483 0 0 0-.303-.106h-.015.001a.463.463 0 0 0-.092.009l.003-.001a.391.391 0 0 1-.079.008h-.011a.212.212 0 0 1-.137-.049.422.422 0 0 1-.089-.127l-.001-.003a.852.852 0 0 1-.047-.166l-.001-.005a1.43 1.43 0 0 1-.008-.153v-.001c0-.184.046-.319.138-.406a.801.801 0 0 1 .349-.179c.141-.032.289-.046.446-.04.162 0 .305-.006.429-.017.141-.011.279-.035.414-.073.141-.038.284-.056.43-.056.211 0 .419.027.624.081s.414.081.625.081c.173 0 .341-.013.503-.04.193-.039.356-.084.515-.138l-.028.009a.704.704 0 0 1 .22-.04c.211 0 .419.027.625.081s.411.086.616.097c.141.011.287.038.438.081.151.038.292.095.422.17.135.07.252.163.349.276s.159.246.186.397a.688.688 0 0 0 .114.268c.06.081.122.157.186.227.07.065.13.127.179.187.054.054.081.1.081.138s-.019.068-.057.09c-.033.016-.049.046-.049.09 0 .026.016.056.049.089.038.032.079.07.122.113s.081.092.114.146a.256.256 0 0 1 .056.163.334.334 0 0 1-.081.219.32.32 0 0 0-.074.205v.006l.017.024.113-.033.017.016a.957.957 0 0 1 .024.276v.252c0 .102-.003.216-.008.34s-.019.246-.04.365c-.022.12-.054.23-.097.333a.566.566 0 0 1-.185.242l-.001.001a.636.636 0 0 1-.15.088l-.004.002a.849.849 0 0 0-.146.065.388.388 0 0 0-.218.241l-.001.003a.743.743 0 0 1-.139.261l.001-.001a9.02 9.02 0 0 1-.21.252l.008-.009a2.352 2.352 0 0 0-.178.236.504.504 0 0 0-.073.263v.005c0 .157.035.303.105.438.076.135.143.273.203.413.06.146.103.294.13.446.027.146.046.294.057.446.016.152.027.303.032.454.011.152.028.303.049.454.011.065.035.173.074.324.043.146.094.294.154.446s.127.284.203.397c.076.113.154.17.236.17.07 0 .127-.038.17-.113s.084-.163.122-.26c.044-.097.089-.192.138-.284a.414.414 0 0 1 .208-.186l.003-.001c.168.016.305.049.413.097a.59.59 0 0 1 .259.201l.001.002c.06.081.1.184.122.308.027.119.041.259.041.422zM66.15 5.1a.813.813 0 0 0-.049-.26 2.467 2.467 0 0 0-.29-.609l.006.009a1.402 1.402 0 0 0-.163-.229l.001.002c-.114 0-.189-.008-.227-.024s-.062-.035-.073-.058a.939.939 0 0 0-.044-.094l.003.006c-.011-.033-.049-.065-.113-.098a3.774 3.774 0 0 0-.483-.203l-.028-.008a1.748 1.748 0 0 0-.504-.073h-.041.002a.365.365 0 0 0-.18.05l.002-.001a.286.286 0 0 1-.145.049h-.001c-.124 0-.246-.013-.365-.04a1.354 1.354 0 0 0-.365-.049c-.179 0-.363.022-.552.065-.125.032-.249.062-.373.09a1.17 1.17 0 0 0-.339.125l.006-.003a.744.744 0 0 0-.242.217l-.002.002a.693.693 0 0 0-.09.381c0 .168.017.333.049.495.038.162.058.326.058.495a.696.696 0 0 1-.041.235 3.527 3.527 0 0 1-.081.253l.008-.025c-.028.07-.054.143-.081.219a.84.84 0 0 0-.032.236c0 .097.008.197.024.3a.91.91 0 0 0 .106.268.613.613 0 0 0 .184.185l.002.001a.57.57 0 0 0 .281.073h.021-.001a.833.833 0 0 0 .324-.065.742.742 0 0 1 .324-.073c.063 0 .122.018.172.049l-.001-.001c.054.028.108.057.162.09s.111.065.17.097c.056.026.121.04.19.04h.006a.7.7 0 0 0 .154-.016.95.95 0 0 0 .138-.057c.205-.092.422-.173.649-.243.205-.071.442-.112.689-.114h.001c.06 0 .13-.032.211-.097a2.41 2.41 0 0 0 .251-.259 4.142 4.142 0 0 0 .649-1.079.723.723 0 0 0 .065-.252zm12.379 3.252a1.089 1.089 0 0 1-.067.332l.002-.008a.728.728 0 0 1-.083.165l.002-.003c-.033.044-.07.065-.113.065h-.005a.19.19 0 0 1-.054-.008h.001a.185.185 0 0 0-.054-.008h-.003c-.038 0-.073.019-.106.057a4.073 4.073 0 0 0-.097.122.62.62 0 0 1-.12.12l-.002.001a.271.271 0 0 1-.157.049h-.014.001a.664.664 0 0 1-.122-.016c.041.195.064.419.065.649 0 .173-.011.343-.032.511-.022.163-.046.327-.073.495s-.052.335-.073.503a3.738 3.738 0 0 0-.033.503c0 .2.013.397.04.592.033.195.049.392.049.592 0 .087-.008.179-.024.276s-.048.185-.091.264l.002-.005a.535.535 0 0 1-.161.202l-.001.001a.408.408 0 0 1-.246.081h-.014.001a.465.465 0 0 1-.357-.138 1.92 1.92 0 0 1-.206-.298l-.005-.01a7.313 7.313 0 0 0-.177-.355l.023.047c-.044-.097-.103-.146-.179-.146-.038 0-.086.022-.146.065-.077.054-.138.1-.198.147l.011-.008a1.95 1.95 0 0 1-.235.154.746.746 0 0 1-.247.097l-.005.001c-.103.021-.173.051-.211.089l-.113.113a.519.519 0 0 1-.166.088l-.004.001c-.07.027-.195.04-.373.04-.119 0-.238-.005-.357-.016a3.428 3.428 0 0 0-.349-.017c-.086 0-.173.006-.26.017-.074.01-.159.016-.246.016h-.006c-.135 0-.246-.011-.332-.032a1.385 1.385 0 0 1-.243-.101l.007.004a3.52 3.52 0 0 0-.189-.104l-.021-.01a1.073 1.073 0 0 0-.268-.112l-.008-.002c.094.023.024.001-.047-.021l-.165-.043a1.765 1.765 0 0 1-.158-.071l.012.005a1.845 1.845 0 0 1-.135-.093l.005.003-.17-.146a1.741 1.741 0 0 0-.138-.093l-.008-.005a3.531 3.531 0 0 1-.167-.105l.013.008a.875.875 0 0 1-.129-.121l-.001-.001a.298.298 0 0 1-.056-.162v-.001a.364.364 0 0 0-.025-.107l.001.002a.108.108 0 0 0-.049-.048h-.001a.17.17 0 0 0-.064-.024h-.001a1.587 1.587 0 0 1-.098-.053l.009.005a1.126 1.126 0 0 1-.144-.293l-.002-.008-.098-.3a1.701 1.701 0 0 0-.126-.302l.004.009a.846.846 0 0 0-.217-.266l-.002-.001a.629.629 0 0 0 .024-.173v-.006a.833.833 0 0 0-.065-.324 3.24 3.24 0 0 0-.155-.335l.009.019a4.248 4.248 0 0 1-.117-.266l-.021-.059a.982.982 0 0 1-.065-.354v-.003c0-.076.005-.151.016-.227a1.082 1.082 0 0 0-.018-.534l.002.008a4.307 4.307 0 0 0-.081-.316l.008.032c.059.253.031.156.003.058l-.085-.35a1.318 1.318 0 0 1-.033-.297v-.101l.017-.106a7.62 7.62 0 0 0 .073-.593l.049-.592c.016-.2.035-.397.056-.592.022-.2.054-.397.097-.592.044-.189.081-.376.114-.56.038-.184.057-.371.057-.559.043-.06.1-.122.17-.187a8.62 8.62 0 0 0 .219-.195c.076-.07.141-.141.195-.211a.576.576 0 0 0 .113-.215l.001-.004a.832.832 0 0 1 .129-.259 2.734 2.734 0 0 1 .544-.576.634.634 0 0 1 .259-.13.663.663 0 0 1 .103-.008H71.757a.355.355 0 0 0 .205-.065l-.001.001c.027-.022.04-.057.04-.106a.36.36 0 0 0-.025-.124l.001.002c.292-.027.581-.073.868-.138s.576-.098.868-.098c.065 0 .168.003.308.008s.281.024.422.057c.146.027.273.07.381.13.108.054.162.129.162.227v.04a.148.148 0 0 1 .049-.008h.057c.086 0 .17.017.252.049s.165.049.252.049.175-.003.268-.008c.097-.011.192-.028.284-.049.099-.027.185-.063.265-.108l-.006.003a.657.657 0 0 0 .202-.162l.001-.001c.119 0 .216.06.292.179.076.113.136.248.179.405s.073.316.09.479c.021.157.032.278.032.365 0 .13-.011.26-.032.389a1.598 1.598 0 0 1-.101.392l.004-.011c.01.07.032.132.065.187l.113.162a.833.833 0 0 1 .114.163.345.345 0 0 1 .049.179v.007a1.454 1.454 0 0 0-.073.422 4.887 4.887 0 0 1-.052.569l.003-.027a1.37 1.37 0 0 1-.142.479l.004-.008c-.065.129-.175.195-.332.195h-.009a.388.388 0 0 1-.267-.106.752.752 0 0 1-.168-.247l-.002-.005.016.008c.07 0 .106-.033.106-.097 0-.017-.019-.038-.057-.065a1.12 1.12 0 0 0-.109-.078l-.004-.003a1.84 1.84 0 0 0-.122-.085l-.007-.004a.516.516 0 0 1-.097-.089l-.001-.001a.96.96 0 0 1-.12-.204l-.002-.006a1.952 1.952 0 0 1-.094-.26l-.004-.015a2.828 2.828 0 0 1-.062-.281l-.003-.02a1.767 1.767 0 0 1-.024-.283v-.074c0-.022.003-.044.008-.065l-.008.008a.47.47 0 0 1-.106-.106 4.01 4.01 0 0 0-.175-.217l.005.006a4.295 4.295 0 0 0-.183-.232l.005.006a3.702 3.702 0 0 0-.12-.163l.006.008a2.52 2.52 0 0 0-.341-.286l-.008-.005a2.582 2.582 0 0 1-.349-.292c-.044.027-.09.051-.138.073a.39.39 0 0 1-.135.024h-.012a.204.204 0 0 1-.098-.025l.001.001-.062-.05-.019-.014a.546.546 0 0 0-.087-.072l-.002-.001a.231.231 0 0 0-.118-.032h-.013.001a1.5 1.5 0 0 0-.349.04c-.1.026-.215.04-.333.04h-.007c-.125 0-.249-.024-.373-.073a.966.966 0 0 0-.371-.073h-.002a.213.213 0 0 0-.091.025l.001-.001c.006.049.019.095.041.138a.3.3 0 0 1-.065.357c-.06.07-.132.138-.219.203-.081.065-.165.13-.252.195a.967.967 0 0 0-.185.169l-.001.001a1.12 1.12 0 0 0-.144.236l-.003.007-.097.26c-.032.081-.076.16-.129.236a.56.56 0 0 1-.208.185l-.003.001a.894.894 0 0 1 .065.324c0 .076-.005.148-.016.219-.01.061-.016.131-.016.202v.01c0 .173.013.346.04.519.027.168.04.338.04.511 0 .141-.013.281-.04.421a5.673 5.673 0 0 1-.09.456l.008-.042c-.032.135-.062.273-.089.413a2.498 2.498 0 0 0-.033.411v.004c0 .124.013.243.041.356.032.114.067.225.105.333s.07.211.097.308a.851.851 0 0 1 .032.46l.001-.006a.978.978 0 0 0-.016.177v.001c0 .233.051.43.154.593.102.157.219.305.349.446.135.141.265.284.389.429.124.141.208.311.252.511a1.21 1.21 0 0 1 .235-.024c.098 0 .195.011.292.032s.192.049.284.081c.092.028.187.051.284.073s.195.033.292.033c.205 0 .414-.04.625-.122.226-.091.422-.205.597-.344l-.005.004c.184-.141.344-.303.479-.486s.227-.376.276-.576c.044-.195.106-.379.187-.552.032-.065.065-.105.097-.122a.333.333 0 0 1 .087-.032h.002a.593.593 0 0 0 .07-.018l-.004.001c.016-.005.024-.024.024-.056s-.019-.063-.057-.09a.128.128 0 0 1-.049-.101v-.004c0-.016.011-.035.033-.056.021-.028.045-.058.073-.09a.361.361 0 0 0 .114-.266V9.719a.39.39 0 0 0-.098-.259.841.841 0 0 0-.238-.176l-.005-.002a1.765 1.765 0 0 0-.304-.134l-.013-.004a2.083 2.083 0 0 1-.317-.159l.009.005a.855.855 0 0 1-.242-.217l-.002-.002a.605.605 0 0 1-.098-.357c0-.119.03-.216.09-.292a.75.75 0 0 1 .235-.195c.098-.049.2-.084.308-.106.108-.028.211-.049.308-.065.065-.011.135-.029.211-.056.076-.033.152-.063.227-.09.076-.032.146-.06.211-.081a.527.527 0 0 1 .185-.04h.001a.56.56 0 0 1 .227.049c.076.027.152.046.227.057.103.016.23.038.381.065.157.027.305.068.446.122s.259.127.356.22a.43.43 0 0 1 .155.331v.018-.001zm10.237-2.604a.47.47 0 0 1-.042.133l.001-.003a3.115 3.115 0 0 1-.106.23l.009-.019a1.94 1.94 0 0 1-.11.219l.005-.009a.69.69 0 0 1-.09.131l.001-.001.016.008a.066.066 0 0 0-.032.008h-.041a.315.315 0 0 1-.071.008h-.075l.033-.008a1.115 1.115 0 0 1-.349-.067l.008.003a.54.54 0 0 1-.242-.233l-.001-.003a1.359 1.359 0 0 1-.044-.101l-.004-.012a4.989 4.989 0 0 1-.108-.313l-.014-.052a.813.813 0 0 1-.016-.128v-.002c0-.044.003-.09.008-.138a.65.65 0 0 0 .017-.137c0-.168-.017-.333-.049-.495a2.431 2.431 0 0 1-.049-.491v-.004c0-.108.013-.213.04-.316s.076-.197.146-.284H87.555a.209.209 0 0 1-.143-.057c-.038-.044-.1-.065-.187-.065-.205 0-.405.024-.6.073-.182.046-.39.073-.605.073h-.272a4.083 4.083 0 0 0-.258-.008h-.011.001c-.168 0-.332.019-.495.056a2.061 2.061 0 0 1-.47.058c-.016 0-.024-.003-.024-.009 0-.01.019-.024.057-.04.038-.022.057-.038.057-.049 0-.022-.019-.032-.057-.032h-.065c-.043 0-.081.021-.113.064a.208.208 0 0 1-.129.089h-.001a.999.999 0 0 1-.252.032h-.276a4.153 4.153 0 0 1-.561-.042l.017.002a1.525 1.525 0 0 1-.293-.093l.009.004c-.081-.044-.127-.102-.138-.179-.06.017-.1.046-.122.09-.016.038-.033.078-.049.122a.367.367 0 0 1-.058.123l.001-.001c-.027.032-.081.051-.162.057-.152.011-.249.06-.292.146a.64.64 0 0 0-.065.282v.01c0 .06.003.119.008.179s.008.119.008.179c0 .216-.005.433-.016.649-.005.211-.008.424-.008.641v.373c.006.152.017.303.033.454.022.146.051.278.089.397.038.114.092.179.163.195a.967.967 0 0 0 .138.024h.147c.189 0 .373-.022.551-.065a2.4 2.4 0 0 1 .56-.065c.076 0 .146.011.211.033.07.022.14.032.211.032.103 0 .181-.048.236-.146.06-.102.1-.219.122-.349.025-.118.042-.257.048-.4v-.006a4.72 4.72 0 0 0-.008-.698c-.005-.12-.008-.262-.008-.405v-.001h.049c.136 0 .262.022.381.065a1.066 1.066 0 0 0 .5.057h-.005c0 .108.019.216.057.324s.057.219.057.333c0 .141-.076.23-.227.268.043.076.078.152.106.227s.04.154.04.235c0 .06-.005.119-.016.179a.81.81 0 0 0-.017.168v.001c0 .054.017.098.049.13.038.028.057.06.057.097a.526.526 0 0 1-.081.243.647.647 0 0 0-.073.301c0 .118.011.243.033.373s.046.265.073.405c.027.141.051.284.073.43.022.141.033.284.033.43 0 .086-.006.176-.017.268a.934.934 0 0 1-.058.274l.002-.006a.786.786 0 0 1-.123.229l.001-.002a.638.638 0 0 1-.192.178l-.003.002a.541.541 0 0 1-.261-.091l.002.001a.857.857 0 0 1-.177-.184l-.002-.003a1.217 1.217 0 0 1-.103-.234l-.002-.009a2.103 2.103 0 0 1-.047-.264l-.001-.012a2.446 2.446 0 0 1-.032-.388v-.019a.523.523 0 0 0-.083-.285l.001.002c-.049-.086-.146-.154-.292-.202-.14-.049-.362-.073-.665-.073-.086 0-.211.008-.373.024a2.762 2.762 0 0 0-.47.09 1.351 1.351 0 0 0-.419.173l.006-.003c-.114.076-.171.171-.171.284 0 .065.006.13.017.195a.72.72 0 0 1 .024.187c0 .054-.003.108-.008.162a1.78 1.78 0 0 0-.008.17c0 .147.008.292.024.438.017.141.025.284.025.43 0 .157-.022.31-.065.462a1.867 1.867 0 0 0-.057.462c0 .173.041.311.122.414a.882.882 0 0 0 .324.227c.13.049.271.081.422.097s.292.024.422.024c.259 0 .519-.016.778-.049s.52-.049.779-.049c.163 0 .324.008.487.024s.324.024.486.024c.124 0 .262-.003.414-.008.151-.011.294-.038.429-.081.141-.043.26-.105.357-.186a.586.586 0 0 0 .194-.362v-.003c.006-.044.019-.074.041-.09a.315.315 0 0 1 .079-.048l.002-.001a.48.48 0 0 0 .083-.05l-.001.001c.022-.016.033-.044.033-.081a.293.293 0 0 0-.049-.147l.001.001a.616.616 0 0 1-.064-.158l-.001-.004a1.931 1.931 0 0 1-.04-.304v-.321c0-.163.024-.303.073-.422a1.002 1.002 0 0 0 .072-.532l.001.005V9.72c0-.033.024-.065.073-.097s.106-.06.17-.081a1.239 1.239 0 0 1 .342-.089c.135 0 .246.049.332.147a.883.883 0 0 1 .195.34c.049.135.081.275.098.422s.024.27.024.373c0 .168-.014.357-.041.568s-.065.428-.113.649a7.817 7.817 0 0 1-.169.707l.014-.058a6.465 6.465 0 0 1-.195.593l.016-.049a.694.694 0 0 1-.098.171l.001-.001a.398.398 0 0 1-.096.096l-.001.001-.114.074a.581.581 0 0 0-.129.112l-.001.001c-.044.049-.127.081-.252.097-.111.015-.24.024-.371.024h-.011.001c-.102 0-.2-.003-.292-.008a4.164 4.164 0 0 0-.209-.008h-.003c-.179 0-.324.022-.438.065a.826.826 0 0 1-.308.065h-.001c-.07 0-.116-.013-.138-.041a.108.108 0 0 0-.091-.049h-.006a.15.15 0 0 0-.106.049c-.033.032-.081.049-.146.049h-.203a2.303 2.303 0 0 0-.194-.008h-.01.001c-.406 0-.808.011-1.209.032-.325.024-.745.044-1.168.056l-.041.001a5.292 5.292 0 0 0-.853.103l.034-.006a4.032 4.032 0 0 1-.819.081 1.959 1.959 0 0 1-.345-.034l.012.002a1.371 1.371 0 0 1-.366-.101l.009.003a.855.855 0 0 1-.275-.194.465.465 0 0 1-.113-.304v-.013.001c0-.119.044-.233.13-.341s.189-.208.308-.3c.125-.092.252-.175.381-.252.13-.081.236-.157.316-.227a1.117 1.117 0 0 1-.008-.121v-.357a.945.945 0 0 1 .049-.243.537.537 0 0 1 .082-.172l-.001.002a.333.333 0 0 0 .073-.179v-.001a.236.236 0 0 0-.025-.106l.001.001a.957.957 0 0 1-.028-.088l-.004-.018a2.58 2.58 0 0 1-.126-.37l-.004-.019a2.166 2.166 0 0 1-.033-.382v-.034.002-.252l.017-.211c.011-.07.024-.14.04-.211.022-.076.049-.16.081-.252a1.098 1.098 0 0 1-.071-.162l-.002-.008a.574.574 0 0 1-.041-.177v-.002l.114-1.152a.287.287 0 0 1-.009-.068v-.014.001c0-.049.008-.097.024-.147a.476.476 0 0 0 .024-.15v-.004c0-.131-.024-.256-.067-.372l.002.007a1.09 1.09 0 0 1-.065-.374.454.454 0 0 1 .034-.157l-.001.003c.015-.036.037-.101.057-.166l.008-.029c.027-.07.051-.146.073-.227.021-.086.032-.178.032-.275v-.01a.33.33 0 0 0-.057-.186l.001.001a.345.345 0 0 1-.049-.179v-.007c0-.065.016-.13.049-.195a.462.462 0 0 0 .049-.208V5.07a.753.753 0 0 0-.065-.308 3.418 3.418 0 0 0-.131-.313l.009.021a35.055 35.055 0 0 1-.154-.324.554.554 0 0 0-.122-.203.389.389 0 0 0-.2-.113h-.003a1.49 1.49 0 0 0-.353-.057h-.003a.532.532 0 0 1-.222-.066l.003.001a.827.827 0 0 1-.177-.161l-.001-.001a1.06 1.06 0 0 1-.12-.205l-.003-.007a.567.567 0 0 1-.049-.218v-.001c0-.101.051-.19.129-.243l.001-.001a.916.916 0 0 1 .333-.162c.135-.044.287-.076.454-.097a5.52 5.52 0 0 1 .486-.058c.163-.015.308-.026.438-.032.135-.005.237-.013.308-.024.108-.016.214-.027.316-.032s.209-.008.317-.008c.211 0 .422.008.632.024.216.011.43.016.641.016a3.4 3.4 0 0 0 .665-.065 3.37 3.37 0 0 1 .673-.065c.205 0 .408.024.609.074.2.043.397.064.592.064.189 0 .376-.021.559-.064.168-.047.361-.073.56-.074.081 0 .162.008.243.024.119.13.227.238.324.324.103.087.189.176.26.268a.964.964 0 0 1 .179.308c.049.119.081.276.097.47.005.07.008.157.008.26 0 .097.003.195.008.292.005.092.019.176.04.252.028.076.068.122.122.138 0 .076-.038.113-.114.113.006.076.022.154.049.236l.081.235c.027.076.051.154.073.236a.782.782 0 0 1 .033.219zm-7.025 1.996h-.003a.229.229 0 0 0-.087.017l.002-.001c-.027.011-.046.035-.057.073.205.119.368.233.487.341.124.102.219.186.284.252.07.065.122.102.154.113.033.006.065-.029.097-.106a.266.266 0 0 0-.025-.276l.001.001a.662.662 0 0 0-.232-.218l-.003-.002a1.251 1.251 0 0 0-.316-.136l-.009-.002a.923.923 0 0 0-.291-.057h-.002zm18.244 4.819c0 .049-.003.113-.008.195s-.033.135-.081.162a.198.198 0 0 0-.105.137v.001c-.01.058-.016.125-.016.193v.001c0 .065-.003.124-.008.179-.005.049-.027.073-.065.073h-.006a.116.116 0 0 1-.059-.016h.001a.09.09 0 0 0-.061-.024h-.004c-.027 0-.054.013-.081.04s-.04.054-.04.081c0 .027.008.049.024.065.022.011.033.03.033.057 0 .022-.041.049-.122.081-.058.021-.15.049-.244.073l-.032.007a1.942 1.942 0 0 1-.287.071l-.013.002a1.125 1.125 0 0 1-.195.033c-.195 0-.39-.035-.584-.106s-.384-.134-.568-.195a.903.903 0 0 1-.495-.373 1.957 1.957 0 0 1-.225-.571l-.002-.013a6.28 6.28 0 0 1-.111-.632l-.003-.033a2.454 2.454 0 0 0-.135-.625l.005.017a.641.641 0 0 1-.04-.201V11.229c0-.042.006-.083.017-.121l-.001.003a.465.465 0 0 1 .05-.091l-.001.001.049-.064a.106.106 0 0 0 .024-.065.375.375 0 0 0-.058-.196l.001.002a.512.512 0 0 1-.058-.236l.001-.025v.001-.17c.005-.053.008-.114.008-.175v-.003a1.8 1.8 0 0 0-.057-.495 1.338 1.338 0 0 0-.149-.363l.003.006a2.391 2.391 0 0 0-.222-.329l.003.004a7.99 7.99 0 0 1-.254-.355l-.022-.034a.704.704 0 0 1-.15.016h-.158c-.108 0-.216-.005-.324-.016a2.817 2.817 0 0 0-.316-.017c-.124 0-.244.012-.361.035l.012-.002c-.103.02-.222.032-.344.032h-.005a.803.803 0 0 1-.227-.032.665.665 0 0 0-.508.018l.004-.002a.793.793 0 0 0-.252.147.741.741 0 0 0-.184.215l-.002.004a.552.552 0 0 0-.065.262v.266c0 .47-.04.932-.122 1.387l-.032.211a1.197 1.197 0 0 0-.017.205v.006c0 .221.044.399.13.535.092.134.203.246.333.333.129.081.273.148.429.202s.3.111.43.17c.13.054.238.122.324.203a.42.42 0 0 1 .138.333v.001a.366.366 0 0 1-.034.155l.001-.002a1.252 1.252 0 0 1-.267.389.727.727 0 0 1-.198.129l-.005.002c-.07.032-.149.057-.236.073s-.189.038-.308.065a1.56 1.56 0 0 1-.288.041h-.004a2.6 2.6 0 0 1-.29.016h-.002c-.152 0-.3-.019-.446-.057a1.993 1.993 0 0 0-.444-.049h-.002c-.123 0-.244.012-.361.034l.012-.002a8.092 8.092 0 0 0-.341.058 3.385 3.385 0 0 1-.32.062l-.02.002a1.779 1.779 0 0 1-.34.032 1.5 1.5 0 0 1-.261-.025l.009.001a.761.761 0 0 1-.247-.092l.004.002a.6.6 0 0 1-.194-.153l-.001-.001a.375.375 0 0 1-.073-.224v-.012.001a.37.37 0 0 1 .057-.203.55.55 0 0 1 .144-.152l.002-.001c.065-.044.132-.079.203-.106s.138-.043.203-.049c.06-.005.108-.008.146-.008h.009a.294.294 0 0 0 .099-.017l-.002.001a.4.4 0 0 0 .099-.05l-.001.001a.72.72 0 0 0 .113-.097.887.887 0 0 1 .073-.065.189.189 0 0 1 .093-.024h.006c.027 0 .054.003.081.008a.404.404 0 0 0 .081.008.245.245 0 0 0 .131-.041l-.001.001a.579.579 0 0 0 .242-.248l.001-.003c.049-.102.081-.214.097-.333a2.71 2.71 0 0 0 .024-.373v-.008c.006-.13.022-.25.049-.357.028-.119.041-.23.041-.333 0-.189-.024-.376-.073-.559a2.388 2.388 0 0 1-.065-.559v-.002c0-.227.017-.454.049-.682s.049-.454.049-.681c0-.06-.003-.116-.008-.17v-.171c0-.389.024-.773.073-1.152.046-.344.073-.742.073-1.146v-.007c0-.223-.012-.443-.035-.66l.002.027a8.238 8.238 0 0 1-.033-.316 5.267 5.267 0 0 0-.053-.428l.004.031a3.72 3.72 0 0 0-.095-.432l.006.026a1.18 1.18 0 0 0-.149-.362l.003.005a.78.78 0 0 0-.225-.258l-.002-.002a.482.482 0 0 0-.302-.106h-.014.001a.473.473 0 0 0-.093.009l.003-.001a.391.391 0 0 1-.079.008h-.011a.212.212 0 0 1-.137-.049.437.437 0 0 1-.088-.127l-.001-.003a.852.852 0 0 1-.048-.166l-.001-.005a1.445 1.445 0 0 1-.008-.153V2.94c0-.184.046-.319.138-.406a.801.801 0 0 1 .349-.179c.14-.032.289-.046.446-.04.162 0 .305-.006.429-.017.141-.011.279-.035.414-.073.141-.038.284-.056.43-.056.211 0 .419.027.625.081s.413.081.624.081c.173 0 .341-.013.503-.04.163-.033.324-.076.487-.13a.699.699 0 0 1 .219-.04c.211 0 .419.027.625.081s.411.086.616.097c.141.011.287.038.438.081.151.038.292.095.422.17.135.07.252.163.349.276s.159.246.186.397a.688.688 0 0 0 .114.268c.06.081.122.157.186.227.07.065.13.127.179.187.054.054.081.1.081.138s-.019.068-.057.09c-.033.016-.049.046-.049.09 0 .026.016.056.049.089.038.032.079.07.122.113s.081.092.114.146a.256.256 0 0 1 .056.163.334.334 0 0 1-.081.219.32.32 0 0 0-.074.205v.006l.017.024.113-.033.017.016a.957.957 0 0 1 .024.276v.252c0 .102-.003.216-.008.34s-.019.246-.04.365c-.022.12-.054.23-.097.333a.566.566 0 0 1-.185.242l-.001.001a.636.636 0 0 1-.15.088l-.004.002a.849.849 0 0 0-.146.065.388.388 0 0 0-.218.241l-.001.003a.743.743 0 0 1-.139.261l.001-.001a9.02 9.02 0 0 1-.21.252l.008-.009a2.352 2.352 0 0 0-.178.236.504.504 0 0 0-.073.263v.005c0 .157.035.303.105.438.076.135.143.273.203.413.06.146.103.294.13.446.027.146.046.294.057.446.016.152.027.303.032.454.011.152.028.303.049.454.011.065.035.173.074.324.043.146.094.294.154.446s.127.284.203.397c.076.113.154.17.236.17.07 0 .127-.038.17-.113s.084-.163.122-.26c.044-.097.09-.192.138-.284a.414.414 0 0 1 .208-.186l.003-.001c.168.016.306.049.413.097a.59.59 0 0 1 .259.201l.001.002c.06.081.1.184.122.308.027.119.041.259.041.422zM97.559 5.1a.813.813 0 0 0-.049-.26 2.467 2.467 0 0 0-.29-.609l.006.009a1.402 1.402 0 0 0-.163-.229l.001.002c-.114 0-.189-.008-.227-.024s-.062-.035-.073-.058a.939.939 0 0 0-.044-.094l.003.006c-.011-.033-.049-.065-.113-.098a3.774 3.774 0 0 0-.483-.203l-.028-.008a1.748 1.748 0 0 0-.504-.073h-.041.002a.365.365 0 0 0-.18.05l.002-.001a.286.286 0 0 1-.145.049h-.001c-.124 0-.246-.013-.365-.04a1.354 1.354 0 0 0-.365-.049c-.179 0-.363.022-.552.065-.125.032-.249.062-.373.09a1.17 1.17 0 0 0-.339.125l.006-.003a.723.723 0 0 0-.242.217L93 3.966a.693.693 0 0 0-.09.381c0 .168.017.333.049.495.038.162.057.326.057.495a.695.695 0 0 1-.04.235c-.03.104-.054.18-.082.254l.009-.027c-.028.07-.054.143-.081.219a.841.841 0 0 0-.033.236c0 .097.008.197.024.3a.91.91 0 0 0 .106.268.613.613 0 0 0 .184.185l.002.001a.567.567 0 0 0 .28.073h.02-.001a.826.826 0 0 0 .324-.065.745.745 0 0 1 .324-.073c.06 0 .116.017.171.049.054.028.108.057.162.09s.111.065.17.097c.056.026.121.04.19.04h.005a.693.693 0 0 0 .154-.016.95.95 0 0 0 .138-.057c.205-.092.422-.173.649-.243.205-.071.442-.112.689-.114h.001c.06 0 .13-.032.211-.097.081-.07.164-.157.252-.259a4.142 4.142 0 0 0 .648-1.079.723.723 0 0 0 .065-.252zM48.166 30.003c0 .081-.04.148-.122.202a.908.908 0 0 1-.294.129l-.006.001c-.107.03-.241.059-.378.079l-.019.002c-.147.016-.292.029-.438.04-.141.005-.271.008-.39.008h-.259c-.141 0-.268.016-.381.049s-.221.067-.324.105l-.275.106a.748.748 0 0 1-.26.049h-.006a.282.282 0 0 1-.189-.073.253.253 0 0 0-.178-.073h-.011a.538.538 0 0 1-.244-.058l.003.001a.774.774 0 0 1-.203-.146.874.874 0 0 1-.144-.214l-.002-.005a.654.654 0 0 1-.049-.243c0-.102.024-.189.073-.26a.638.638 0 0 1 .2-.169l.003-.002a.74.74 0 0 1 .259-.097 1.25 1.25 0 0 1 .275-.032.73.73 0 0 1 .219.032c.07.016.136.049.195.097a.392.392 0 0 1 .066-.204l-.001.001a1.24 1.24 0 0 1 .123-.163l-.001.001c.04-.05.078-.106.11-.165l.003-.006a.4.4 0 0 0 .058-.207v-.012.001c0-.141-.009-.282-.025-.422a3.8 3.8 0 0 1-.024-.43c0-.092.008-.184.024-.275.02-.084.032-.18.032-.279v-.005c0-.109-.008-.219-.024-.333a3.903 3.903 0 0 1-.017-.34v-.02c0-.089.018-.174.051-.251l-.002.004a.46.46 0 0 0 .049-.195v-.001c0-.113-.019-.227-.058-.34a1.12 1.12 0 0 0-.154-.316.977.977 0 0 0-.225-.241l-.002-.002a.584.584 0 0 0-.264-.129l-.004-.001a4.462 4.462 0 0 0-.811-.073h-.006a.538.538 0 0 0-.209.042l.004-.001a.52.52 0 0 1-.152.032h-.001a.26.26 0 0 1-.115-.033l.001.001c-.044-.027-.073-.04-.09-.04a.652.652 0 0 0-.219.04c-.07.022-.143.046-.219.073l-.227.081a.784.784 0 0 1-.219.032c-.119 0-.243.003-.373.008-.125 0-.25.011-.374.032a1.204 1.204 0 0 0-.348.106.874.874 0 0 0-.292.218l-.001.001v.057c0 .108.003.213.008.316.005.097.008.2.008.308 0 .124-.008.241-.024.349a1.05 1.05 0 0 1-.117.338l.003-.005a.312.312 0 0 0-.024.113v.001c0 .086.016.17.049.252a.62.62 0 0 1 .049.243.234.234 0 0 1-.04.122.255.255 0 0 0-.041.138c0 .076.011.149.033.22.027.07.057.143.09.219.032.07.062.141.089.211s.046.143.057.219c.016.157.07.275.162.356.097.076.209.138.333.187.124.043.254.083.389.122.141.038.262.092.365.162a.711.711 0 0 0-.016.12v.001c0 .092.017.179.049.26s.049.168.049.26v.009a.263.263 0 0 1-.104.21h-.001a.567.567 0 0 1-.24.113l-.004.001a1.345 1.345 0 0 1-.297.049h-.003a3.543 3.543 0 0 1-.241.008h-.002a.266.266 0 0 1-.066-.017l.002.001a.44.44 0 0 1-.108-.034l.003.001-.097-.032-.073-.025c-.303.06-.611.097-.925.114s-.625.024-.933.024c-.081 0-.186-.008-.316-.024a1.66 1.66 0 0 1-.401-.085l.012.004a1.036 1.036 0 0 1-.327-.164l.003.002a.368.368 0 0 1-.13-.282v-.01c0-.054.008-.116.024-.186.016-.076.04-.149.073-.22s.07-.134.113-.195a.41.41 0 0 1 .144-.128l.002-.001c.115-.053.248-.095.388-.12l.01-.002c.159-.034.3-.085.432-.151l-.01.005c.134-.07.248-.175.34-.316s.138-.352.138-.633a5.07 5.07 0 0 0-.017-.413 5.107 5.107 0 0 1-.016-.407v-.007c0-.076.003-.152.008-.227.005-.07.008-.152.008-.235 0-.232-.013-.462-.04-.689a7.41 7.41 0 0 1-.032-.698c0-.097.008-.195.024-.292.016-.102.024-.2.024-.292 0-.135-.019-.268-.057-.397a1.34 1.34 0 0 1-.056-.39c0-.027.003-.045.008-.056a.414.414 0 0 0 .057-.16v-.002c.015-.086.029-.178.04-.275.017-.098.028-.189.033-.276.011-.087.017-.152.017-.195a1.8 1.8 0 0 0-.041-.381 2.343 2.343 0 0 1-.032-.388v-.002c0-.076.005-.151.016-.227a1.21 1.21 0 0 0 .024-.235c0-.032-.006-.051-.017-.057a.102.102 0 0 0-.04-.024h-.001a.095.095 0 0 1-.04-.024c-.011-.016-.017-.049-.017-.097 0-.044.024-.097.073-.162a.347.347 0 0 0 .073-.194v-.001a.63.63 0 0 0-.05-.206l.002.004a1.61 1.61 0 0 0-.133-.283l.004.007a1.722 1.722 0 0 0-.165-.255l.003.004a.516.516 0 0 0-.152-.153l-.002-.001a1.275 1.275 0 0 0-.35-.105l-.007-.001a3.543 3.543 0 0 1-.4-.105l.026.007a.816.816 0 0 1-.301-.187c-.081-.081-.122-.202-.122-.365a.52.52 0 0 1 .122-.357.923.923 0 0 1 .295-.232l.005-.002c.124-.06.257-.1.397-.122a1.968 1.968 0 0 1 .649-.024 2.27 2.27 0 0 1 .608.126l-.016-.005a1.3 1.3 0 0 1 .252.097 3.18 3.18 0 0 1 .397-.106 2.12 2.12 0 0 1 .414-.04c.081 0 .168.008.26.024a.683.683 0 0 1 .259.097c.082.05.148.118.194.2l.001.003a.576.576 0 0 1 .081.324v.013a.382.382 0 0 1-.025.136l.001-.003a.083.083 0 0 1-.076.049h-.005a1.05 1.05 0 0 0-.447.106 1.542 1.542 0 0 0-.713.657.895.895 0 0 0-.089.633c.049.168.09.333.122.495s.049.33.049.503c0 .146-.011.292-.032.438a2.782 2.782 0 0 0-.033.43c0 .189.044.344.13.463.092.113.209.202.349.268s.292.108.454.13c.168.021.33.032.486.032s.314-.005.471-.016c.157-.016.316-.024.479-.024h.001c.17 0 .334.024.49.068l-.013-.003a1.98 1.98 0 0 0 .666.048l-.008.001a.448.448 0 0 0 .156-.057l-.002.001a.812.812 0 0 0 .074-.058c.038-.026.076-.051.113-.072l.114-.073a.197.197 0 0 1 .079-.032h.001a.288.288 0 0 0 .21-.161l.001-.002a1.13 1.13 0 0 0 .106-.308c.025-.105.042-.227.048-.353v-.005c.005-.124.008-.224.008-.3a.801.801 0 0 0-.041-.252 1.705 1.705 0 0 0-.102-.245l.005.01a3.177 3.177 0 0 1-.08-.212l-.009-.031a.79.79 0 0 1-.04-.253v-.007c0-.108.008-.216.024-.324.022-.113.032-.224.032-.333 0-.227-.043-.397-.129-.511a.736.736 0 0 0-.303-.25l-.005-.002a1.374 1.374 0 0 0-.408-.105h-.006a2.938 2.938 0 0 1-.426-.077l.02.004a.845.845 0 0 1-.317-.171l.001.001c-.081-.076-.122-.2-.122-.373 0-.114.024-.203.073-.268s.111-.114.183-.145l.003-.001c.081-.038.168-.062.26-.072s.181-.017.268-.017c.173 0 .341.011.503.032a3.331 3.331 0 0 0 1.046-.016c.195-.032.392-.049.592-.049.109 0 .236.008.381.024.146.011.287.038.422.081a.903.903 0 0 1 .34.195.468.468 0 0 1 .138.357.383.383 0 0 1-.081.252.918.918 0 0 1-.203.163c-.081.043-.173.081-.275.113s-.203.067-.301.106a1.336 1.336 0 0 0-.268.122.414.414 0 0 0-.178.176l-.001.002a.57.57 0 0 0-.073.216v.003a5.1 5.1 0 0 0 .008.649c.016.135.024.273.024.413 0 .486-.016.971-.049 1.452-.032.476-.049.954-.049 1.436v.503a7.7 7.7 0 0 0 .032.495c.012.157.041.311.09.463.049.146.073.297.073.454v.019a.51.51 0 0 1-.026.162l.001-.004a.547.547 0 0 1-.058.116l.001-.002a1.254 1.254 0 0 1-.049.09.17.17 0 0 0-.024.088v.002c0 .092.022.181.065.268.041.078.064.17.065.267 0 .119-.013.238-.04.357a1.958 1.958 0 0 0-.032.357c0 .011.008.054.024.129.022.07.044.149.065.236.027.086.054.168.081.243a.452.452 0 0 0 .066.14l-.001-.001a.617.617 0 0 0 .231.145l.004.001c.092.032.189.062.292.09.102.021.202.045.3.072a.814.814 0 0 1 .268.122c.054.038.113.09.179.154.07.06.105.127.105.203zm10.051-5.005c0 .113-.011.224-.032.333a7.847 7.847 0 0 1-.074.316 5.635 5.635 0 0 0-.073.316 1.63 1.63 0 0 0-.032.323v.001c0 .044.003.086.008.13a.414.414 0 0 1 .017.12v.002a.819.819 0 0 1-.058.308 1.724 1.724 0 0 1-.122.284.729.729 0 0 0-.081.252l-.016.26c0 .086-.008.173-.024.259a.688.688 0 0 1-.099.246l.002-.003-.049.243a.61.61 0 0 1-.066.223l.002-.003c-.006.011-.022.019-.049.024a1.099 1.099 0 0 1-.073.014l-.017.002a.44.44 0 0 0-.108.034l.003-.001a.262.262 0 0 0-.097.073.292.292 0 0 0-.065.112l-.001.002c-.02.061-.039.109-.06.156l.004-.01a.51.51 0 0 1-.082.131l.001-.001a.14.14 0 0 1-.106.049H56.857a.33.33 0 0 1-.126-.025l.002.001a1.06 1.06 0 0 0-.107-.055l-.007-.003a.5.5 0 0 0-.11-.047l-.004-.001a.237.237 0 0 0-.14.009l.002-.001c.017.01.022.038.017.081a.426.426 0 0 0 0 .124v-.002a.267.267 0 0 0 .073.122c.038.038.106.058.203.058.101-.001.199-.012.293-.034l-.009.002a.946.946 0 0 1-.156.285l.001-.002a1.327 1.327 0 0 1-.199.176l-.004.003c-.07.049-.146.1-.227.154-.086.057-.16.122-.226.194l-.001.001a.6.6 0 0 1-.268.17l-.292.081c-.13.038-.221.083-.275.138s-.113.105-.175.151l-.004.003a.804.804 0 0 1-.262.12l-.006.001c-.108.038-.282.057-.519.057-.216 0-.433-.008-.649-.024a12.337 12.337 0 0 1-.633-.065.9.9 0 0 1-.249-.06l.006.002a.978.978 0 0 1-.175-.083l.004.002a2.164 2.164 0 0 1-.173-.096l.011.006a1.281 1.281 0 0 0-.193-.093l-.01-.003a1.996 1.996 0 0 1-.169-.072l.015.006a4.122 4.122 0 0 1-.391-.165l.026.011a1.131 1.131 0 0 1-.132-.091l.002.002a.305.305 0 0 1-.081-.104l-.001-.002-.032-.13a.702.702 0 0 0-.043-.134l.002.005a.18.18 0 0 0-.072-.105h-.001a2.796 2.796 0 0 1-.256-.045l.02.004a3.527 3.527 0 0 1-.253-.081l.026.008a5.928 5.928 0 0 0-.078-.209l.014.038a2.143 2.143 0 0 0-.062-.194l.005.016a1.567 1.567 0 0 0-.199-.184l-.004-.003a1.617 1.617 0 0 1-.169-.161l-.001-.001a.891.891 0 0 1-.127-.181l-.002-.005a.912.912 0 0 1-.064-.289v-.003a1.716 1.716 0 0 0-.101-.418l.004.012a7.425 7.425 0 0 0-.175-.454l.021.057a5.65 5.65 0 0 1-.121-.337l-.017-.06a1.544 1.544 0 0 1-.058-.414c0-.146.03-.294.09-.446a1.636 1.636 0 0 1-.291-.713l-.001-.009a5.442 5.442 0 0 1-.057-.795v-.252a3.61 3.61 0 0 0 .008-.252.31.31 0 0 0-.065-.211.329.329 0 0 1-.058-.187v-.008c0-.119.017-.236.049-.349a1.54 1.54 0 0 0 .073-.348c-.07-.011-.116-.038-.138-.081l.017-.032c.038-.065.068-.125.09-.179.026-.054.045-.105.056-.154s.022-.1.032-.154l.041-.187c.044-.221.097-.438.163-.649.07-.211.138-.424.202-.641.07-.249.157-.468.26-.657s.262-.365.479-.527c.092-.076.175-.157.252-.243s.13-.189.162-.308a.187.187 0 0 1 .088-.04h.001a.586.586 0 0 1 .097-.008h.065a.703.703 0 0 0 .106-.008.293.293 0 0 0 .106-.057c.081-.076.151-.13.211-.162a.577.577 0 0 1 .261-.048h-.001c.076 0 .148.008.219.024.07.01.143.024.219.04.028-.027.065-.062.114-.106a.556.556 0 0 1 .134-.096l.003-.001v.024c0 .023.003.045.009.067v-.002c.011.017.029.024.056.024a.44.44 0 0 0 .205-.05l-.002.001a.698.698 0 0 1 .203-.065c.157-.027.314-.068.47-.122.157-.06.317-.09.479-.09.173 0 .357.011.552.033.2.022.395.062.584.122s.365.143.527.252c.163.102.292.238.39.406a.83.83 0 0 0 .13.179c.043.038.086.073.13.106.043.027.086.056.129.089.044.027.09.068.138.122.102.119.184.249.243.39.065.134.154.256.268.365.141.13.243.287.308.47.07.184.106.371.106.56 0 .059-.008.118-.024.178s-.024.122-.024.187c0 .054.01.111.032.17.043.096.073.157.104.218l-.014-.031c.032.064.062.132.09.202.026.07.045.138.056.203.016.146.04.289.073.43.032.135.065.275.097.422A4.534 4.534 0 0 1 58.219 25zm-1.322-.057a5.02 5.02 0 0 0-.081-.9l-.146-.892a1.183 1.183 0 0 0-.109-.315l.003.007a2.683 2.683 0 0 1-.108-.279l-.006-.02a4.538 4.538 0 0 1-.139-.411l-.047-.173-.179-.584a.625.625 0 0 0-.225-.307l-.002-.001a1.483 1.483 0 0 0-.387-.224l-.01-.003a2.518 2.518 0 0 0-.477-.151l-.017-.003a4.316 4.316 0 0 0-.479-.095l-.024-.003a3.384 3.384 0 0 0-.447-.048h-.008a3.86 3.86 0 0 0-.305-.017h-.004l.106-.008-.09.008c-.118 0-.237-.006-.356-.017a3.626 3.626 0 0 0-.343-.016h-.006c-.097 0-.195.008-.292.024a.501.501 0 0 0-.252.106l.001-.001-.503.397a1.356 1.356 0 0 0-.386.487l-.003.008a.449.449 0 0 1-.105.153c-.043.031-.08.06-.116.091l.002-.002a.5.5 0 0 0-.088.096l-.001.002a.41.41 0 0 0-.057.186v.001c-.027.157-.06.314-.097.47a2.223 2.223 0 0 0-.049.462c0 .168-.016.335-.049.503a2.23 2.23 0 0 1-.143.493l.005-.014-.049.122a.435.435 0 0 0 .041.335l-.001-.002a.26.26 0 0 1 .057.146c0 .022-.008.035-.024.04a.08.08 0 0 0-.041.017c-.011.005-.024.021-.04.048a.435.435 0 0 0-.017.123l.001.025v-.001.478c.006.163.022.322.049.479.016.092.043.181.081.268a.54.54 0 0 1 .065.258v.001a.437.437 0 0 1-.042.181l.001-.003a.444.444 0 0 0-.04.185v.001c0 .076.022.138.065.187.044.044.087.095.13.154.032.044.06.1.081.171.027.065.051.127.073.186.027.06.051.111.073.154s.046.065.073.065h.003a.167.167 0 0 0 .055-.009h-.001a.098.098 0 0 1 .054-.016h.011a.26.26 0 0 1 .234.145l.001.002c.06.092.09.184.09.275 0 .077.021.141.064.195a.98.98 0 0 0 .152.136l.003.002.178.13a.671.671 0 0 1 .163.13c.07.081.124.135.162.163.033.022.07.041.11.055l.004.001.09.017a.348.348 0 0 1 .122.056c.059.044.118.092.178.146l.187.138c.168.119.354.192.559.219.211.022.416.032.616.032.081 0 .157-.019.227-.056s.141-.078.211-.122c.07-.049.141-.092.211-.13a.536.536 0 0 1 .465-.006l-.003-.001c.124-.189.243-.341.357-.454s.216-.224.308-.333c.092-.108.17-.232.236-.373s.111-.333.138-.576a.84.84 0 0 1 .081-.284.785.785 0 0 0 .09-.284c.027-.216.04-.433.04-.649.005-.216.024-.433.056-.649a4.07 4.07 0 0 0 .033-.525v-.003zm12.2-5.451a.23.23 0 0 1-.073.17.67.67 0 0 1-.174.111l-.005.002a2.077 2.077 0 0 1-.203.09 3.15 3.15 0 0 0-.203.083l.024-.01a.573.573 0 0 0-.114.074l.001-.001-.09.09a.413.413 0 0 1-.095.071l-.002.001a.481.481 0 0 1-.126.057l-.003.001a.829.829 0 0 1-.186.024h-.001a.692.692 0 0 0-.154.017.23.23 0 0 0-.13.057.5.5 0 0 0-.112.167l-.001.003a.955.955 0 0 0-.073.251 1.48 1.48 0 0 1-.06.279l.003-.011a.573.573 0 0 1-.122.219l.001-.001c-.049.06-.127.09-.236.09 0 .059.019.122.057.186l.13.179c.049.06.092.122.13.186.034.05.055.112.056.178a.461.461 0 0 1-.041.189l.001-.003a.449.449 0 0 0-.04.186v.001l-.008.495a.74.74 0 0 0 .057.324.742.742 0 0 1 .073.324c0 .07-.015.137-.042.198l.001-.003a.468.468 0 0 0-.04.19v.006c0 .227.022.454.065.681.049.222.073.452.073.69 0 .157-.013.326-.04.511a.909.909 0 0 1-.196.456l.001-.002a.521.521 0 0 0 .05.198l-.001-.003a2.065 2.065 0 0 1 .154.349c.027.065.04.152.04.26 0 .097-.011.227-.033.389a2.225 2.225 0 0 1-.102.478l.005-.016a1.325 1.325 0 0 1-.203.39.379.379 0 0 1-.31.162h-.039c-.005-.005-.013-.008-.024-.008l-.008.049v.024c0 .076.022.143.065.202a.313.313 0 0 1 .073.2v.003c0 .038-.024.087-.073.147-.043.06-.097.122-.162.186-.064.064-.13.125-.198.183l-.005.004a6.284 6.284 0 0 0-.163.154l.001-.001a.707.707 0 0 0-.112.143l-.002.003a.904.904 0 0 1-.075.124l.002-.003a.326.326 0 0 1-.096.089l-.001.001a.608.608 0 0 1-.175.056h-.004a1.397 1.397 0 0 0-.373.122 5.016 5.016 0 0 0-.343.185l.027-.015c-.094.05-.204.097-.318.134l-.015.004a1.27 1.27 0 0 1-.43.064c-.092 0-.181-.01-.268-.032a4.886 4.886 0 0 1-.293-.082l.033.009a2.007 2.007 0 0 0-.253-.078l-.015-.003a1.056 1.056 0 0 0-.259-.032h-.001c-.07 0-.141.005-.211.016a2.524 2.524 0 0 1-.202.008.889.889 0 0 1-.13-.008c-.027-.005-.06-.027-.097-.065a.36.36 0 0 0-.128-.089l-.002-.001a1.21 1.21 0 0 0-.169-.07l-.01-.003a1.426 1.426 0 0 0-.185-.063l-.009-.002a1.778 1.778 0 0 0-.146-.045l-.016-.004a.731.731 0 0 1-.285-.163 1.973 1.973 0 0 1-.239-.27l-.004-.006a3.882 3.882 0 0 1-.184-.311l-.011-.022a2.87 2.87 0 0 1-.266-.852l-.002-.016a9.286 9.286 0 0 1-.062-.533l-.003-.043a18.405 18.405 0 0 0-.065-.664l.008.088a3.475 3.475 0 0 0-.103-.6l.005.024a3.527 3.527 0 0 0-.081-.253l.008.025a.926.926 0 0 1-.015-.419l-.001.006.032-.178a7.16 7.16 0 0 0 .098-.69c.026-.209.04-.451.04-.697v-.001c0-.308-.016-.614-.049-.916a10.31 10.31 0 0 1-.04-.916V22.418c0-.169.027-.331.076-.483l-.003.011a.91.91 0 0 0 .056-.317v-.004a.329.329 0 0 0-.017-.104l.001.002a2.781 2.781 0 0 1-.028-.088l-.004-.018a1.155 1.155 0 0 1-.113-.375l-.001-.006a9.385 9.385 0 0 1-.028-.338l-.004-.068c-.022-.232-.07-.397-.147-.495a.597.597 0 0 0-.271-.21l-.004-.001a1.97 1.97 0 0 0-.352-.103l-.013-.002a1.202 1.202 0 0 1-.417-.213l.002.002a.479.479 0 0 1-.113-.096l-.001-.001a.257.257 0 0 1-.04-.138c0-.086.045-.164.138-.235.097-.07.211-.127.34-.17s.26-.076.39-.097c.13-.028.23-.041.3-.041.086 0 .168.011.243.032a.957.957 0 0 0 .252.033c.173 0 .34-.019.503-.058.162-.043.33-.064.502-.064.07 0 .179.013.324.04.147.027.292.067.438.122.146.049.273.111.381.186.113.07.17.152.17.243 0 .12-.038.233-.114.341-.07.102-.159.203-.268.3a6.729 6.729 0 0 1-.342.288l-.015.012a3.327 3.327 0 0 0-.349.333c-.106.117-.198.25-.271.395l-.005.01c-.067.14-.106.303-.106.477v.019-.001c0 .109.003.22.008.333a3.25 3.25 0 0 1-.052.986l.004-.021a3.66 3.66 0 0 0-.056.649c0 .179.024.341.073.486.054.141.081.252.081.333a.86.86 0 0 1-.032.243.973.973 0 0 0-.024.228v.105a.703.703 0 0 1 .008.106v.019c0 .07-.015.136-.042.195l.001-.003c-.022.054-.046.102-.073.146s-.054.083-.081.122a.217.217 0 0 0-.04.126v.004a.667.667 0 0 1 .081-.057.17.17 0 0 1 .088-.024h.002c.038 0 .068.013.09.04s.038.06.048.098c.017.032.028.07.033.113.006.038.008.07.008.097 0 .141.019.278.056.413.044.136.065.273.065.414 0 .124-.011.252-.032.381a2.272 2.272 0 0 0-.007.742l-.002-.013c.021.102.094.187.219.252.022.011.046.044.073.097s.054.114.081.179c.032.059.065.122.097.186.032.06.065.103.097.13a.91.91 0 0 0 .211.147l.227.113c.081.032.157.07.227.114a.64.64 0 0 1 .202.161l.001.001c.049.06.111.113.186.162.076.044.149.092.22.147.076.049.14.102.195.162.05.056.081.13.081.211v.008-.015c0-.056.012-.11.033-.158l-.001.003c.005.019.009.04.009.063v.011c0 .044-.011.076-.033.097a.365.365 0 0 0 .056-.079l.001-.002.065-.113c.022-.038.044-.07.065-.097s.046-.04.073-.04c.038 0 .073.013.106.04s.049.062.049.106v.001a.366.366 0 0 1-.034.155l.001-.002a.46.46 0 0 0-.04.152v.002a.434.434 0 0 0 .165-.033l-.003.001a.9.9 0 0 0 .163-.097.416.416 0 0 0 .112-.128l.001-.002a.322.322 0 0 0 .049-.17c0-.07-.022-.114-.065-.13a.293.293 0 0 0-.133-.032h-.013.001a.936.936 0 0 0-.13.008.88.88 0 0 1-.119.008H64.534a.498.498 0 0 1 .122-.203.63.63 0 0 1 .182-.128l.004-.002c.07-.038.143-.068.219-.09l.22-.081a.786.786 0 0 0 .276-.171c.07-.076.135-.154.195-.235l.179-.243c.06-.087.132-.165.219-.236a.817.817 0 0 0 .008-.106v-.097c0-.113-.006-.224-.017-.333a7.133 7.133 0 0 1-.008-.34c0-.124.016-.248.049-.373a1.264 1.264 0 0 0 .016-.681 1.2 1.2 0 0 1-.04-.314v-.003c0-.097.013-.192.04-.284.027-.097.04-.195.04-.292a2.49 2.49 0 0 0-.04-.454 2.482 2.482 0 0 1-.04-.454c0-.205.016-.405.049-.6.038-.195.056-.392.056-.592 0-.26-.024-.514-.073-.763a4.361 4.361 0 0 1-.065-.758v-.15a1.8 1.8 0 0 1 .024-.187.542.542 0 0 1 .066-.164l-.001.003a.132.132 0 0 1 .118-.073h.004a.414.414 0 0 1-.186-.097 3.745 3.745 0 0 1-.209-.209l-.002-.002a6.692 6.692 0 0 1-.167-.218l-.012-.017a.41.41 0 0 1-.073-.186l-.081.016h-.075a.609.609 0 0 1-.222-.042l.004.001c.328.122.263.094.199.067l-.394-.148a2.132 2.132 0 0 0-.187-.084l-.015-.005a.607.607 0 0 0-.221-.04h-.046a1.922 1.922 0 0 0-.11-.402l.004.013a1.186 1.186 0 0 1-.065-.39v-.007l-.001-.021c0-.09.031-.174.082-.24l-.001.001a.557.557 0 0 1 .215-.145l.004-.001a.945.945 0 0 1 .276-.073c.102-.011.195-.016.276-.016h.004c.156 0 .31.009.461.026l-.019-.002c.146.016.294.024.446.024a.692.692 0 0 0 .316-.073.62.62 0 0 1 .308-.081c.06 0 .122.013.186.04.065.022.13.049.195.081l.211.097c.07.028.138.046.203.057.103.016.211.024.324.024.119 0 .236.005.349.016s.221.033.324.065a.707.707 0 0 1 .396.281l.002.002a.257.257 0 0 1 .057.163zm9.263 6.919c0 .276-.019.547-.057.812a13.88 13.88 0 0 0-.073.811.422.422 0 0 0-.127-.089l-.003-.001a.257.257 0 0 0-.138-.04.291.291 0 0 0-.171.058l.001-.001a.17.17 0 0 0-.081.145c0 .065.03.109.09.13a.6.6 0 0 0 .195.032h.021a.504.504 0 0 0 .096-.009h-.003a.429.429 0 0 1-.058.205l.001-.002c-.032.065-.076.13-.129.195-.052.069-.105.13-.162.187l-.146.146a.843.843 0 0 0-.104.134l-.002.003a1.733 1.733 0 0 1-.267.324l-.001.001a.234.234 0 0 1-.145.057h-.01a.193.193 0 0 1-.12-.041.156.156 0 0 0-.113-.049c-.06 0-.097.032-.114.097a.978.978 0 0 0-.016.177v.099c0 .027-.057.062-.17.105s-.252.092-.414.146l-.495.154c-.17.048-.31.097-.446.155l.024-.009a4.82 4.82 0 0 1-.637.219l-.036.008a2.75 2.75 0 0 1-.706.09c-.178 0-.351-.024-.519-.073a9.138 9.138 0 0 1-.566-.167l.072.021a4.322 4.322 0 0 0-.458-.145l-.036-.008a1.746 1.746 0 0 0-.503-.073h-.009c-.07 0-.162.01-.276.032a.658.658 0 0 0-.262.099l.002-.002a.333.333 0 0 0-.08.112l-.001.002c-.027.06-.06.09-.097.09a.313.313 0 0 1-.115-.033l.002.001a2.04 2.04 0 0 1-.123-.057l.018.008a1.05 1.05 0 0 1-.315-.25l-.001-.002a1.798 1.798 0 0 1-.215-.338l-.005-.011a1.564 1.564 0 0 1-.127-.379l-.002-.011a2.119 2.119 0 0 1-.041-.405c0-.092.008-.182.024-.268.022-.092.033-.184.033-.275 0-.13-.016-.257-.049-.381a1.752 1.752 0 0 1-.041-.381c0-.092.014-.184.041-.276a.811.811 0 0 0 .049-.276v-.004a.393.393 0 0 0-.05-.193l.001.002a.437.437 0 0 1-.049-.202c0-.049.016-.09.049-.122a.15.15 0 0 0 .057-.114c0-.065-.003-.129-.008-.195a2.248 2.248 0 0 1-.008-.191V26.051c.006-.065.013-.127.024-.187a.45.45 0 0 1 .058-.156l-.001.002a.127.127 0 0 1 .111-.065h.003c.097 0 .195.062.292.186.102.119.195.26.276.422.086.162.157.324.211.486s.081.284.081.365a.123.123 0 0 1-.033.081.109.109 0 0 1-.078.032h-.004c.022.038.046.095.074.171a.547.547 0 0 1 .04.177v.004c0 .066-.012.13-.034.188l.001-.004a.72.72 0 0 0-.024.187c0 .054.011.106.033.154.027.049.054.095.081.138.043.065.081.114.113.146s.068.057.106.073a.732.732 0 0 0 .122.024c.049.006.111.011.186.017.22.316.487.582.793.796l.01.007c.243.054.484.097.722.13s.479.049.722.049h.034c.33 0 .64-.087.908-.24l-.009.005c.13-.07.254-.149.373-.236.119-.092.243-.186.373-.284.08-.057.175-.119.273-.176l.019-.01c.103-.06.203-.122.3-.186s.189-.136.276-.211c.086-.081.159-.173.219-.276a.853.853 0 0 1 .162-.194l.001-.001c.076-.07.113-.146.113-.227v-.01a.275.275 0 0 0-.008-.065v.002a8.532 8.532 0 0 1-.049-.503 22.583 22.583 0 0 0-.027-.57l.003.059c-.011-.163-.046-.284-.106-.365a.72.72 0 0 0-.224-.209l-.003-.002a2.817 2.817 0 0 0-.269-.164l-.015-.007a1.263 1.263 0 0 1-.3-.226.677.677 0 0 0-.344-.194l-.005-.001a2.221 2.221 0 0 0-.385-.049h-.004a8.907 8.907 0 0 1-.442-.027l.037.002a.745.745 0 0 1-.366-.155l.002.001a.159.159 0 0 0-.081-.033h-.001a.259.259 0 0 0-.147.049l.001-.001a.27.27 0 0 1-.142.04h-.004c-.081 0-.165-.011-.252-.032a3.437 3.437 0 0 1-.271-.082l.028.008-.244-.081a1.317 1.317 0 0 0-.236-.056l-.007-.001a3.188 3.188 0 0 0-.253-.031l-.014-.001a1.878 1.878 0 0 1-.199-.027l.012.002a1.713 1.713 0 0 1-.19-.069l.012.005a2.432 2.432 0 0 1-.252-.151l.008.005a3.126 3.126 0 0 0-.878-.401l-.022-.005a2.84 2.84 0 0 0-.242-.474l.007.012a2.824 2.824 0 0 0-.163-.097l-.016-.008a3.19 3.19 0 0 1-.168-.126l.006.005a2.105 2.105 0 0 1-.125-.269l-.005-.015a5.126 5.126 0 0 1-.12-.337l-.026-.093a4.168 4.168 0 0 1-.102-.323l-.028-.115a1.322 1.322 0 0 1-.048-.288v-.004c0-.125.013-.243.04-.357a.628.628 0 0 1 .186-.308h.001l.056-.04c.028-.022.041-.046.041-.073s-.022-.046-.065-.057c-.038-.016-.056-.046-.056-.09 0-.005.003-.013.008-.024a.107.107 0 0 0 .008-.041c.038-.119.095-.232.17-.34s.163-.211.26-.308.197-.186.3-.268c.108-.086.211-.165.308-.235a.666.666 0 0 0 .179-.187.527.527 0 0 1 .168-.161l.002-.001h.114a.805.805 0 0 1 .232.001l-.004-.001h.122a.276.276 0 0 0 .122-.073c.022-.032.044-.062.065-.089s.049-.049.08-.064l.001-.001a.532.532 0 0 1 .196-.024h-.001.004c.061 0 .122.003.182.008l-.008-.001h.179c.205 0 .408-.003.609-.008.205-.006.411-.008.616-.008.146 0 .289.003.43.008.146 0 .292.01.438.032.097.011.192.032.284.065.085.026.183.04.285.04h.008c.097 0 .165-.019.203-.057a.423.423 0 0 0 .096-.119l.001-.002c.027-.043.057-.083.089-.122s.09-.057.17-.057c.114 0 .23.03.349.09.125.06.241.108.349.146l-.008.032a.502.502 0 0 0-.024.154v.009c0 .092.013.184.04.276l.097.26c.033.086.062.173.09.259a.79.79 0 0 1 .032.446.738.738 0 0 0-.016.163c0 .108.022.186.065.235.044.044.065.084.065.122a.146.146 0 0 1-.057.114c-.038.027-.057.07-.057.13 0 .141.008.282.024.422a3.382 3.382 0 0 1 .016.643l.001-.011c0 .097-.011.195-.033.292a.684.684 0 0 1-.089.243.184.184 0 0 1-.166.106h-.005a.373.373 0 0 1-.235-.09h.001a1.532 1.532 0 0 1-.185-.184l-.002-.002a.733.733 0 0 1-.152-.238l-.002-.005a2.23 2.23 0 0 1-.078-.268l-.003-.016a4.307 4.307 0 0 0-.081-.316l.008.032a.934.934 0 0 0-.124-.271l.002.003a10.902 10.902 0 0 1-.222-.325l-.03-.048-.227-.389a.928.928 0 0 0-.154-.203.31.31 0 0 0-.136-.073h-.002a.542.542 0 0 0-.16-.024h-.011.001a1.916 1.916 0 0 1-.532-.101l.013.004a3.065 3.065 0 0 0-.253-.082l-.031-.008a2.127 2.127 0 0 0-.268-.078l-.017-.003a1.073 1.073 0 0 0-.292-.04 1.65 1.65 0 0 0-.479.073 3.558 3.558 0 0 0-.509.196l.022-.009c-.162.07-.321.146-.478.227a5.126 5.126 0 0 1-.454.195 2.142 2.142 0 0 0-.203.925c0 .237.027.433.081.584s.127.282.219.39c.097.102.205.195.324.275.124.081.254.168.389.26.141.092.278.154.414.187.14.027.292.04.454.04.092 0 .181-.003.268-.008.08-.005.173-.008.267-.008h.009c.102 0 .2.013.292.04s.181.06.268.097c.092.032.184.062.276.09s.187.04.284.04c.092 0 .179-.006.259-.017.086-.01.173-.016.26-.016h.005c.073 0 .142.021.199.058l-.001-.001c.06.032.119.073.179.122.06.044.118.084.178.122.065.038.136.06.211.065.108.054.197.102.268.146s.132.09.187.138c.06.049.113.109.162.179.054.07.114.157.179.26.06.102.138.192.236.268s.175.168.235.275a.35.35 0 0 1 .041.138c.005.049.013.097.024.146a.473.473 0 0 0 .05.124l-.001-.002c.027.033.067.051.122.058a2.1 2.1 0 0 1 .008.178c.006.054.008.111.008.17zm10.457-4.047a.434.434 0 0 1-.042.132l.001-.002a3.115 3.115 0 0 1-.106.23l.009-.019a1.662 1.662 0 0 1-.106.211.681.681 0 0 1-.09.13l.001-.001.016.008a.057.057 0 0 0-.032.009h-.041a.288.288 0 0 1-.068.008h-.078l.033-.008a1.104 1.104 0 0 1-.348-.068l.008.003a.538.538 0 0 1-.242-.232l-.001-.003a1.402 1.402 0 0 1-.044-.102l-.004-.012a5.228 5.228 0 0 1-.108-.313l-.014-.052a.813.813 0 0 1-.016-.128v-.002c0-.044.003-.09.008-.138a.651.651 0 0 0 .017-.138c0-.168-.017-.333-.049-.495a2.431 2.431 0 0 1-.049-.491v-.004c0-.109.013-.214.04-.317s.076-.197.146-.284H87.605a.207.207 0 0 1-.143-.057c-.038-.043-.1-.065-.186-.065a2.44 2.44 0 0 0-.6.073c-.182.046-.39.073-.605.073h-.272a4.42 4.42 0 0 0-.268-.008c-.167 0-.332.019-.495.057s-.319.057-.47.057c-.016 0-.024-.003-.024-.008 0-.011.019-.024.057-.04.038-.022.057-.038.057-.049 0-.022-.019-.033-.057-.033h-.065c-.043 0-.081.022-.113.065a.208.208 0 0 1-.129.089h-.001a.988.988 0 0 1-.259.032h-.268a4.973 4.973 0 0 1-.248-.008l.013.001a2.99 2.99 0 0 1-.326-.034l.017.002a1.458 1.458 0 0 1-.293-.093l.009.004c-.081-.044-.127-.102-.138-.179-.06.017-.1.047-.122.09a3.09 3.09 0 0 0-.049.122.367.367 0 0 1-.058.123l.001-.001c-.027.033-.081.051-.162.058-.152.01-.249.059-.292.145a.64.64 0 0 0-.065.282v.011-.001c0 .06.003.118.008.179a2.1 2.1 0 0 1 .008.178c0 .216-.005.433-.016.649a27.06 27.06 0 0 0-.008.641v.373c.006.151.017.303.033.454.022.145.051.278.09.397.038.114.092.179.162.195a.967.967 0 0 0 .138.024h.147c.189 0 .373-.022.551-.065.184-.043.371-.065.56-.065.076 0 .146.011.211.032.07.022.14.033.211.033.103 0 .181-.049.236-.146.06-.102.1-.219.122-.349.027-.135.043-.27.049-.406a4.541 4.541 0 0 0-.01-.715l.001.018a10 10 0 0 1-.008-.404v-.001h.049c.135 0 .262.021.381.065a1.056 1.056 0 0 0 .5.056h-.005c0 .108.019.216.057.324s.057.219.057.333c0 .141-.076.229-.227.268.044.076.078.151.106.227s.04.154.04.235c0 .06-.005.119-.016.179a.813.813 0 0 0-.017.169v.002c0 .054.017.097.049.13.038.027.057.06.057.097a.53.53 0 0 1-.081.243.647.647 0 0 0-.073.301c0 .118.011.243.033.372s.046.265.073.406.051.284.073.43a2.482 2.482 0 0 1 .017.697.935.935 0 0 1-.059.274l.002-.006a.786.786 0 0 1-.123.229l.001-.002a.635.635 0 0 1-.192.177l-.003.002a.545.545 0 0 1-.262-.091l.002.001a.834.834 0 0 1-.177-.184l-.002-.003c-.04-.07-.076-.15-.103-.234l-.002-.009a2.473 2.473 0 0 1-.047-.263l-.001-.013a2.469 2.469 0 0 1-.032-.389V26.019a.523.523 0 0 0-.083-.285l.001.002c-.049-.086-.146-.154-.292-.203-.141-.049-.363-.073-.666-.073-.086 0-.211.008-.373.024a2.863 2.863 0 0 0-.47.09 1.343 1.343 0 0 0-.419.174l.006-.003c-.114.076-.171.17-.171.284 0 .064.006.129.017.195.016.06.024.122.024.186 0 .054-.003.109-.008.163-.005.05-.008.108-.008.167v.004c0 .146.008.292.024.438.016.141.024.284.024.43 0 .157-.022.311-.065.462a1.867 1.867 0 0 0-.057.462c0 .173.041.311.122.413a.882.882 0 0 0 .324.227c.129.049.27.081.422.097s.292.024.422.024c.259 0 .519-.016.778-.049s.52-.049.779-.049c.163 0 .324.008.487.024s.324.024.486.024c.125 0 .262-.003.414-.008.151-.011.294-.038.429-.081.141-.044.26-.106.357-.187a.584.584 0 0 0 .194-.362v-.003c.006-.043.019-.073.041-.09a.312.312 0 0 1 .079-.047l.002-.001a.553.553 0 0 0 .083-.05l-.001.001c.022-.016.033-.043.033-.081a.293.293 0 0 0-.049-.147l.001.001a.616.616 0 0 1-.064-.158l-.001-.004a1.902 1.902 0 0 1-.04-.303v-.322c0-.162.024-.303.073-.422a.98.98 0 0 0 .073-.533l.001.005v-.122c0-.032.024-.065.073-.097s.106-.06.17-.081c.065-.027.13-.049.195-.065s.113-.024.146-.024c.135 0 .246.049.332.146a.87.87 0 0 1 .195.34c.049.136.081.276.097.422s.024.27.024.372c0 .168-.014.357-.041.568s-.065.427-.113.649a7.08 7.08 0 0 1-.333 1.192.72.72 0 0 1-.098.172l.001-.001a.398.398 0 0 1-.096.096l-.001.001-.113.073a.563.563 0 0 0-.129.113l-.001.001c-.044.049-.127.081-.252.097-.111.015-.24.024-.37.024h-.012.001-.003c-.102 0-.202-.003-.302-.009l.014.001a4.164 4.164 0 0 0-.209-.008h-.002c-.179 0-.324.022-.438.065a.826.826 0 0 1-.308.065h-.001c-.07 0-.116-.013-.138-.04a.108.108 0 0 0-.091-.049h-.006a.15.15 0 0 0-.106.049c-.033.032-.081.049-.146.049h-.203a2.48 2.48 0 0 0-.201-.008h-.002c-.406 0-.808.011-1.209.032-.324.024-.744.045-1.167.057l-.041.001a5.292 5.292 0 0 0-.853.103l.034-.006a4.073 4.073 0 0 1-.816.081h-.003a1.959 1.959 0 0 1-.345-.034l.012.002a1.335 1.335 0 0 1-.366-.101l.009.003a.842.842 0 0 1-.275-.195.465.465 0 0 1-.113-.304v-.013.001c0-.119.044-.232.13-.34s.189-.208.308-.301c.125-.092.252-.175.381-.251.13-.081.236-.157.316-.227a1.117 1.117 0 0 1-.008-.121v-.357a.957.957 0 0 1 .051-.25l-.002.007a.537.537 0 0 1 .082-.172l-.001.002a.333.333 0 0 0 .073-.179v-.001a.236.236 0 0 0-.025-.106l.001.001a1.025 1.025 0 0 1-.028-.087l-.005-.018a2.552 2.552 0 0 1-.126-.371l-.004-.019a2.166 2.166 0 0 1-.033-.382v-.033.002-.252l.017-.211a3.13 3.13 0 0 1 .04-.211c.022-.076.049-.159.081-.251a1.066 1.066 0 0 1-.071-.163l-.002-.008a.56.56 0 0 1-.041-.177v-.002l.114-1.151a.287.287 0 0 1-.009-.068v-.014.001c0-.049.008-.097.024-.146a.476.476 0 0 0 .024-.15v-.004c0-.131-.024-.257-.067-.373l.002.007a1.085 1.085 0 0 1-.065-.373.454.454 0 0 1 .034-.157l-.001.003c.022-.06.044-.125.065-.195.027-.07.051-.146.073-.227.021-.086.032-.179.032-.275v-.01a.33.33 0 0 0-.057-.186l.001.001a.345.345 0 0 1-.049-.179v-.008a.43.43 0 0 1 .049-.195.462.462 0 0 0 .049-.208v-.003a.753.753 0 0 0-.065-.308 3.418 3.418 0 0 0-.131-.313l.009.021a54.448 54.448 0 0 1-.154-.324.554.554 0 0 0-.122-.203.389.389 0 0 0-.2-.113h-.003a1.49 1.49 0 0 0-.354-.056h-.003a.533.533 0 0 1-.222-.067l.003.001a.85.85 0 0 1-.177-.16l-.001-.001a1.06 1.06 0 0 1-.12-.205l-.003-.007a.567.567 0 0 1-.049-.218v-.001c0-.101.051-.19.129-.243l.001-.001a.934.934 0 0 1 .333-.163c.135-.043.287-.076.454-.097.168-.027.33-.046.486-.056.163-.017.308-.028.438-.033.135-.006.237-.013.308-.024a3.14 3.14 0 0 1 .309-.032h.008a5.4 5.4 0 0 1 .316-.009c.211 0 .422.008.632.024.216.011.43.017.641.017a3.4 3.4 0 0 0 .665-.065c.201-.041.433-.065.67-.065h.003c.205 0 .408.024.609.073.2.044.397.065.592.065.189 0 .376-.022.559-.065.184-.049.371-.073.56-.073.081 0 .162.008.243.024.119.13.227.238.324.324.103.086.189.176.26.268a.964.964 0 0 1 .179.308c.049.119.081.275.097.47.005.07.008.157.008.26 0 .097.003.195.008.292.006.092.019.175.04.252.028.076.068.122.122.138 0 .076-.038.114-.114.114a.986.986 0 0 0 .049.235 10.652 10.652 0 0 1 .154.471.788.788 0 0 1 .033.22zm-7.026 1.995h-.003a.229.229 0 0 0-.087.017l.002-.001c-.027.011-.046.035-.057.073.205.119.368.232.487.34.124.102.219.187.284.252a.58.58 0 0 0 .154.114c.033.005.065-.03.097-.106a.267.267 0 0 0-.024-.277l.001.001a.669.669 0 0 0-.232-.217l-.003-.002a1.183 1.183 0 0 0-.316-.136l-.009-.002a.929.929 0 0 0-.291-.056h-.002zM14.652.058c-5.331.41-9.945 2.898-12.4 6.688-.638.984-1.041 1.915-1.344 3.105-.189.746-.197 1.199-.027 1.654l.129.344-.136.4c-.107.317-.13.506-.109.908.042.823.432 1.498 1.139 1.971l.237.158v1.69l-.361.171c-.541.256-1.156.87-1.427 1.423-.589 1.203-.43 2.657.393 3.592l.252.285-.123.394c-.232.745-.123 1.546.292 2.148l.217.316v1.33c0 1.618.074 2.054.49 2.903.655 1.333 1.941 2.223 3.467 2.397.759.087 20.874.087 21.633 0 1.083-.124 1.91-.529 2.696-1.32.378-.38.536-.602.771-1.078.407-.83.49-1.298.49-2.765v-1.19l.166-.154c.733-.675.982-1.9.57-2.801l-.169-.369.162-.212c.724-.95.85-2.371.307-3.471-.277-.561-.892-1.173-1.434-1.43l-.36-.171v-1.549l.344-.179c.44-.229.942-.761 1.158-1.225.148-.317.17-.443.17-.996.001-.59-.013-.661-.209-1.06-.184-.375-.202-.452-.142-.624.161-.463-.001-1.443-.435-2.625-1.114-3.041-4.032-5.838-7.61-7.295-2.157-.901-4.662-1.424-7.29-1.424-.531 0-1.056.021-1.576.063l.068-.004zm2.897 1.26c6.283.483 11.42 4.055 12.626 8.781.15.586.156.822.029 1.069-.21.405.881.376-14.047.376s-13.837.029-14.047-.377c-.127-.246-.121-.483.029-1.069.636-2.49 2.396-4.733 5.002-6.374 2.877-1.813 6.684-2.693 10.408-2.407zm-2.106 1.223c-.439.406-.157 1.082.444 1.065.278-.008.586-.301.586-.559 0-.209-.159-.512-.312-.594a.666.666 0 0 0-.717.088zm3.019.286c-.395.161-.509.691-.213.987.132.133.321.196 1.014.34 3.7.77 6.586 2.694 7.915 5.279.346.673.458.784.785.782.333-.002.633-.298.633-.623 0-.218-.675-1.461-1.103-2.032-.547-.732-1.697-1.821-2.504-2.374-1.599-1.094-3.424-1.852-5.453-2.262-.838-.17-.885-.174-1.073-.097zM9.636 5.646c-.332.18-.399.664-.129.934.301.301.685.283.93-.045.199-.267.169-.59-.076-.809-.227-.203-.452-.228-.724-.081zm4.803.083c-.166.149-.205.23-.205.438 0 .626.806.863 1.122.329.189-.32.092-.7-.218-.86-.265-.137-.474-.109-.7.093zM6.644 7.974c-.579.252-.372 1.171.264 1.171a.615.615 0 0 0 .6-.598v-.001c0-.311-.096-.468-.35-.574-.257-.108-.26-.108-.513.003zm6.314 0c-.579.252-.372 1.171.264 1.171a.615.615 0 0 0 .6-.598v-.001c0-.311-.096-.468-.35-.574-.257-.108-.26-.108-.513.003zm4.406.452c-.189.133-.321.449-.278.672.042.217.355.488.564.488.349 0 .65-.287.653-.62.002-.275-.088-.431-.314-.547-.238-.124-.442-.122-.625.007zm13.247 4.588a1.394 1.394 0 0 1-.097.482l.003-.009c-.307.735-1.076.977-2.08.654-.328-.106-.593-.142-1.029-.142-.879 0-1.289.144-2.251.788-.533.357-.904.483-1.424.483-.504 0-.902-.129-1.35-.437-.939-.646-1.462-.832-2.339-.834-.875-.002-1.392.168-2.214.725-.564.383-1 .543-1.484.544-.571.002-.836-.086-1.437-.477-1.004-.653-1.421-.795-2.337-.792-.811.003-1.267.148-2.034.648-.774.504-1.087.623-1.642.623-.523 0-.894-.127-1.424-.485-.538-.365-1.085-.635-1.446-.715-.557-.124-1.331-.084-1.96.1-.63.184-.94.177-1.341-.029-.457-.234-.71-.644-.71-1.148 0-.288.013-.32.111-.271.061.029 6.332.06 13.937.067 12.9.013 13.848.006 14.143-.095.362-.124.398-.096.406.32zm-17.056 2.437c.147.075.481.276.743.447.668.436 1.077.576 1.796.614.936.051 1.514-.119 2.357-.69.646-.438.991-.563 1.542-.563.616.001.895.101 1.643.586.739.479 1.155.629 1.859.671.936.056 1.551-.132 2.469-.756.762-.518 1.446-.628 2.285-.369.232.072.476.131.542.131.109 0 .12.054.12.631v.632H3.405v-1.188l.268-.043c.27-.051.495-.107.715-.175l-.045.012c.487-.147 1.214-.158 1.592-.024.15.052.54.269.865.48.74.479 1.155.629 1.859.671.933.056 1.551-.133 2.46-.75.205-.14.479-.298.607-.352.525-.221 1.356-.205 1.829.037zM6.89 19.86c1.777 1.773 1.824 1.814 2.071 1.814.242 0 .294-.042 1.216-.962.529-.529.991-.961 1.025-.961.074 0 2.304 2.218 2.304 2.291 0 .028-2.408.042-5.35.031-6.012-.022-5.654.006-6.227-.498-1.187-1.044-.689-3.114.828-3.44.2-.043.803-.08 1.34-.083l.976-.005 1.818 1.814zm3.425-1.054L8.96 20.161l-2.115-2.114h2.718l.751.759zm8.683 1.798-2.557 2.557-5.114-5.114h10.227l-2.557 2.557zm10.464-2.488c.995.173 1.671 1.085 1.574 2.122-.091.973-.703 1.63-1.664 1.788-.378.062-9.995.088-9.995.028 0-.018.902-.926 2.004-2.018l2.004-1.984 2.836-.003c1.809-.001 2.982.023 3.24.068zm1.092 5.08c.183.483-.029 1.099-.493 1.436-.363.263-.893.305-1.51.118-1.211-.366-2.187-.198-3.323.572-.623.422-.89.515-1.494.515-.609 0-.87-.092-1.515-.529-.919-.624-1.77-.848-2.705-.712-.604.088-1.002.26-1.76.758-.49.323-.653.395-1.03.458-.713.12-1.116.016-1.908-.494-.763-.49-1.281-.694-1.902-.747-.87-.074-1.647.156-2.505.738-.641.435-.902.527-1.512.527-.605 0-.87-.092-1.494-.515-1.127-.764-2.122-.94-3.295-.579-1.123.344-2.016-.113-2.076-1.06-.031-.499.022-.563.371-.456.219.068 1.504.09 6.367.106l6.093.022.631.628c.917.912.996.91 1.956-.06l.567-.573 5.494-.002c5.389-.002 6.122-.025 6.63-.208.347-.125.342-.125.412.056zM5.75 25.898c.234.055.545.209.897.444.961.64 1.655.851 2.528.772.662-.06 1.152-.249 1.894-.73.531-.344.747-.446 1.073-.508.717-.136 1.251 0 1.994.504 1.476 1.002 2.882 1.002 4.358 0 .75-.509 1.265-.641 1.981-.506.32.06.539.161.998.458 1.085.705 1.746.889 2.719.758.641-.086.986-.23 1.736-.723.885-.581 1.386-.669 2.289-.399.295.096.635.154.988.158h.464v.902c0 .595-.032 1.025-.094 1.263a3.254 3.254 0 0 1-2.188 2.29l-.023.006c-.361.111-.879.116-11.206.116s-10.845-.005-11.206-.116a3.252 3.252 0 0 1-2.205-2.274l-.005-.023c-.063-.241-.094-.672-.094-1.301v-.941l.166.042c.365.092 1.064.04 1.57-.116.581-.179.867-.196 1.367-.078z"/>
    </symbol>
    <symbol id="basket" viewBox="0 0 31 32">
      <path
        d="M21.76 23.68a2.56 2.56 0 1 1-2.56 2.56 2.55 2.55 0 0 1 2.56-2.56zM1.28 3.2h4.186l1.203 2.56H25.6c.707 0 1.28.573 1.28 1.28 0 .218-.064.435-.154.64l-4.582 8.282a2.572 2.572 0 0 1-2.24 1.318h-9.536l-1.152 2.086-.038.154c0 .177.143.32.32.32H24.32v2.56H8.96a2.56 2.56 0 0 1-2.56-2.56c0-.448.115-.87.307-1.229l1.741-3.136L3.84 5.76H1.28V3.2zm7.68 20.48a2.56 2.56 0 1 1-2.56 2.56 2.55 2.55 0 0 1 2.56-2.56zm11.52-8.96 3.558-6.4H7.859l3.021 6.4h9.6z"/>
    </symbol>
  </defs>
</svg>
